<?xml version="1.0" standalone="no"?>
<!DOCTYPE svg PUBLIC "-//W3C//DTD SVG 20010904//EN"
 "http://www.w3.org/TR/2001/REC-SVG-20010904/DTD/svg10.dtd">
<svg version="1.0" xmlns="http://www.w3.org/2000/svg"
 width="417.000000pt" height="412.000000pt" viewBox="0 0 417.000000 412.000000"
 preserveAspectRatio="xMidYMid meet">

<g transform="translate(0.000000,412.000000) scale(0.100000,-0.100000)"
fill="#000000" stroke="none">
<path d="M1116 3433 c-7 -7 572 -593 586 -593 5 0 8 135 8 300 l0 300 -293 0
c-162 0 -297 -3 -301 -7z"/>
<path d="M1830 2675 c0 -572 3 -725 12 -725 15 0 728 710 728 725 0 15 -713
725 -728 725 -9 0 -12 -153 -12 -725z"/>
<path d="M2747 3313 c-10 -9 -9 -331 1 -337 13 -8 336 320 328 333 -8 12 -317
16 -329 4z"/>
<path d="M2492 3147 l-112 -112 113 -113 c62 -61 116 -112 120 -112 4 0 7 101
7 225 0 124 -3 225 -8 225 -4 0 -58 -51 -120 -113z"/>
<path d="M1582 2317 c-61 -62 -112 -117 -112 -122 0 -15 213 -225 228 -225 9
0 12 54 12 230 0 127 -3 230 -8 230 -4 0 -58 -51 -120 -113z"/>
<path d="M1417 2043 c-4 -3 -7 -107 -7 -230 0 -173 3 -223 13 -223 7 0 64 52
127 115 l115 115 -115 115 c-63 63 -117 115 -121 115 -3 0 -9 -3 -12 -7z"/>
</g>
</svg>
