<svg version="1.1" id="Layer_1" xmlns="http://www.w3.org/2000/svg" xmlns:xlink="http://www.w3.org/1999/xlink" x="0px" y="0px"
	 width="100%" viewBox="0 0 417 412" enable-background="new 0 0 417 412" xml:space="preserve">
<path fill="#FFFEFF" opacity="1.000000" stroke="none" 
	d="
M233.000000,413.000000 
	C155.333344,413.000000 78.166687,413.000000 1.000021,413.000000 
	C1.000014,275.666687 1.000014,138.333389 1.000007,1.000058 
	C139.999954,1.000038 278.999908,1.000038 417.999908,1.000019 
	C417.999939,138.333267 417.999939,275.666534 417.999969,412.999908 
	C356.500000,413.000000 295.000000,413.000000 233.000000,413.000000 
M253.915817,124.718430 
	C254.205002,124.898827 254.494171,125.079216 254.907974,125.074371 
	C254.907974,125.074371 254.741516,125.223175 254.916626,125.717438 
	C255.205780,125.897972 255.494949,126.078514 255.907196,126.075035 
	C255.907196,126.075035 255.741943,126.222343 255.916550,126.716843 
	C256.205444,126.897781 256.494354,127.078728 256.906799,127.074493 
	C256.906799,127.074493 256.741150,127.223198 256.915588,127.717789 
	C257.204620,127.898552 257.493683,128.079315 257.906769,128.074036 
	C257.906769,128.074036 257.740692,128.223785 257.914856,128.718414 
	C258.203857,128.899185 258.492859,129.079941 258.907043,129.073364 
	C258.907043,129.073364 258.740082,129.224670 258.914246,129.719177 
	C259.203217,129.899857 259.492188,130.080521 259.738739,130.246567 
	C259.738739,130.246567 259.751373,130.289810 260.061340,130.953934 
	C263.753387,133.531677 263.849792,130.766342 263.859406,128.288193 
	C263.908203,115.687065 263.915863,103.085403 263.826294,90.484726 
	C263.818146,89.341629 263.016388,88.204170 262.583191,87.064095 
	C261.387787,87.711220 260.192383,88.358353 258.412170,89.318512 
	C252.609421,95.210640 246.806686,101.102760 240.401077,107.268051 
	C240.509720,108.598206 240.618378,109.928352 240.864975,111.291122 
	C240.864975,111.291122 240.739777,111.225441 240.914215,111.719658 
	C241.203110,111.900230 241.492004,112.080803 241.908020,112.072327 
	C241.908020,112.072327 241.739563,112.225685 241.914185,112.719849 
	C242.203201,112.900291 242.492203,113.080742 242.908249,113.072746 
	C242.908249,113.072746 242.739868,113.225380 242.914581,113.719505 
	C243.203629,113.899925 243.492676,114.080345 243.908279,114.073013 
	C243.908279,114.073013 243.740280,114.224831 243.915085,114.718948 
	C244.204117,114.899429 244.493134,115.079910 244.908127,115.073105 
	C244.908127,115.073105 244.740631,115.224388 244.915451,115.718468 
	C245.204391,115.899048 245.493332,116.079628 245.908340,116.072937 
	C245.908340,116.072937 245.740784,116.224228 245.915497,116.718323 
	C246.204315,116.899010 246.493134,117.079704 246.908676,117.072571 
	C246.908676,117.072571 246.740616,117.224541 246.915359,117.718552 
	C247.204163,117.899193 247.492966,118.079842 247.908875,118.072014 
	C247.908875,118.072014 247.740540,118.224808 247.915329,118.718788 
	C248.204208,118.899315 248.493103,119.079834 248.909607,119.072281 
	C248.909607,119.072281 248.740891,119.224579 248.916855,119.718452 
	C249.206665,119.898140 249.496460,120.077820 249.906265,120.076691 
	C249.906265,120.076691 249.743439,120.220154 249.917297,120.714890 
	C250.205673,120.896530 250.494049,121.078171 250.907318,121.072151 
	C250.907318,121.072151 250.740738,121.224007 250.914978,121.718384 
	C251.203827,121.899147 251.492691,122.079910 251.907959,122.072220 
	C251.907959,122.072220 251.740112,122.224945 251.914566,122.719170 
	C252.203522,122.899719 252.492477,123.080269 252.908493,123.072311 
	C252.908493,123.072311 252.740143,123.225067 252.914932,123.719215 
	C253.204041,123.899590 253.493164,124.079964 253.908432,124.073242 
	C253.908432,124.073242 253.740784,124.224289 253.915817,124.718430 
M237.024414,123.976067 
	C237.024414,123.976067 237.120102,123.952324 236.938919,123.442436 
	C236.640869,123.255402 236.342819,123.068367 236.023743,122.976486 
	C236.023743,122.976486 236.118378,122.953247 235.938019,122.443222 
	C235.640167,122.256111 235.342300,122.069000 235.023575,121.976700 
	C235.023575,121.976700 235.117874,121.953651 234.938354,121.442818 
	C234.640823,121.254982 234.343277,121.067139 234.024246,120.975967 
	C234.024246,120.975967 234.120392,120.952225 233.939987,120.442284 
	C233.640915,120.256554 233.341843,120.070816 233.022644,119.977478 
	C233.022644,119.977478 233.114563,119.955338 232.934525,119.446144 
	C232.637741,119.258377 232.340958,119.070618 232.023346,118.976799 
	C232.023346,118.976799 232.116837,118.953995 231.936722,118.444382 
	C231.639587,118.256462 231.342438,118.068535 231.023956,117.976059 
	C231.023956,117.976059 231.118881,117.952507 230.936920,117.444885 
	C230.637070,117.261688 230.337204,117.078484 230.016998,116.983040 
	C230.016998,116.983040 230.104355,116.961029 229.926636,116.451767 
	C229.632935,116.261429 229.339233,116.071098 229.024109,115.976265 
	C229.024109,115.976265 229.119141,115.952843 228.937210,115.443779 
	C228.639633,115.256554 228.342072,115.069328 228.023575,114.976616 
	C228.023575,114.976616 228.117584,114.953575 227.936844,114.444160 
	C227.639465,114.256706 227.342087,114.069252 227.023697,113.976547 
	C227.023697,113.976547 227.117935,113.953400 226.937653,113.443443 
	C226.640472,113.255424 226.343307,113.067406 226.024445,112.975807 
	C226.024445,112.975807 226.120331,112.951874 225.939026,112.442535 
	C225.640625,112.256165 225.342224,112.069786 225.023239,111.976944 
	C225.023239,111.976944 225.116272,111.954208 224.935745,111.444946 
	C224.638916,111.256996 224.342102,111.069038 224.024017,110.976257 
	C224.024017,110.976257 224.118668,110.952805 223.938004,110.443062 
	C223.640472,110.255508 223.342957,110.067947 223.024124,109.975975 
	C223.024124,109.975975 223.119125,109.952225 222.935791,109.445732 
	C222.635666,109.263504 222.335526,109.081276 222.014999,108.985001 
	C222.014999,108.985001 222.100540,108.962975 221.923157,108.454277 
	C221.630402,108.263428 221.337631,108.072578 221.023895,107.976685 
	C221.023895,107.976685 221.118317,107.953476 220.937714,107.443604 
	C220.639709,107.256729 220.341705,107.069855 220.023193,106.977043 
	C220.023193,106.977043 220.116745,106.954338 219.936432,106.444702 
	C219.638763,106.257668 219.341110,106.070641 219.023010,105.977234 
	C219.023010,105.977234 219.116165,105.954765 218.936935,105.443962 
	C218.640091,105.255356 218.343246,105.066750 218.024597,104.975662 
	C218.024597,104.975662 218.121597,104.951660 217.941437,104.441032 
	C217.642441,104.254639 217.343430,104.068245 217.023499,103.976608 
	C217.023499,103.976608 217.117767,103.953613 216.937531,103.443710 
	C216.640091,103.256035 216.342651,103.068367 216.024017,102.976288 
	C216.024017,102.976288 216.119080,102.952835 215.938751,102.442665 
	C215.641068,102.255020 215.343399,102.067368 215.024200,101.975800 
	C215.024200,101.975800 215.119736,101.952011 214.936371,101.445419 
	C214.636093,101.263229 214.335831,101.081032 214.015152,100.984901 
	C214.015152,100.984901 214.100815,100.962852 213.923599,100.453728 
	C213.631134,100.262230 213.338669,100.070740 213.024582,99.975983 
	C213.024582,99.975983 213.120789,99.952087 212.939819,99.442078 
	C212.641006,99.255898 212.342178,99.069710 212.023010,98.977196 
	C212.023010,98.977196 212.116165,98.954651 211.935760,98.445282 
	C211.638153,98.258362 211.340561,98.071434 211.022858,97.977516 
	C211.022858,97.977516 211.115341,97.955116 210.936081,97.443977 
	C210.638657,97.257111 210.341248,97.070244 210.022369,96.976845 
	C210.022369,96.976845 210.115906,96.955696 209.925568,96.448097 
	C209.627747,96.256035 209.329941,96.063972 208.915115,95.434326 
	C208.751251,95.151070 208.506958,94.989128 207.965576,94.428375 
	C207.662323,94.217232 207.359070,94.006088 206.913666,93.379570 
	C206.730865,93.124985 206.483475,92.982750 205.956787,92.445404 
	C205.656311,92.250259 205.355820,92.055107 205.032074,91.971504 
	C205.032074,91.971504 205.141068,91.938286 204.954788,91.425888 
	C204.651062,91.244759 204.347336,91.063622 204.023438,90.977074 
	C204.023438,90.977074 204.117310,90.953812 203.929169,90.449532 
	C203.632477,90.263618 203.335800,90.077698 203.018753,89.981056 
	C203.018753,89.981056 203.107681,89.959190 202.935867,89.445511 
	C202.639038,89.257065 202.342224,89.068619 202.023987,88.976212 
	C202.023987,88.976212 202.119583,88.952843 201.941864,88.441269 
	C201.642014,88.256111 201.342163,88.070961 201.022324,87.977722 
	C201.022324,87.977722 201.113815,87.955887 200.935577,87.445404 
	C200.638672,87.257408 200.341751,87.069412 200.023804,86.976494 
	C200.023804,86.976494 200.118362,86.953262 199.938431,86.442963 
	C199.640701,86.255440 199.342987,86.067924 199.024017,85.976112 
	C199.024017,85.976112 199.119171,85.952469 198.936356,85.445450 
	C198.636200,85.262947 198.336060,85.080444 198.015625,84.984467 
	C198.015625,84.984467 198.101700,84.962372 197.924301,84.453377 
	C197.630844,84.263382 197.337387,84.073380 197.023300,83.977112 
	C197.023300,83.977112 197.116562,83.954475 196.934799,83.445923 
	C196.637482,83.258835 196.340164,83.071739 196.022690,82.977432 
	C196.022690,82.977432 196.114990,82.955162 195.935623,82.445778 
	C195.637573,82.259735 195.339508,82.073692 195.021347,81.978790 
	C195.021347,81.978790 195.112061,81.956825 194.932709,81.447289 
	C194.636765,81.258720 194.340820,81.070152 194.023773,80.976456 
	C194.023773,80.976456 194.118149,80.953217 193.937210,80.444244 
	C193.638992,80.258163 193.340775,80.072075 193.022186,79.977837 
	C193.022186,79.977837 193.113586,79.955566 192.932953,79.447319 
	C192.636337,79.259987 192.339722,79.072655 192.022659,78.977470 
	C192.022659,78.977470 192.114365,78.955116 191.934052,78.446365 
	C191.637421,78.258598 191.340775,78.070831 191.023361,77.976662 
	C191.023361,77.976662 191.116440,77.953690 190.934143,77.447098 
	C190.634872,77.263901 190.335587,77.080696 190.015747,76.984207 
	C190.015747,76.984207 190.102066,76.961998 189.924103,76.453735 
	C189.630646,76.264030 189.337173,76.074318 189.023605,75.985893 
	C189.023605,75.985893 189.108521,75.927132 188.795853,75.272446 
	C187.441803,74.511925 186.087769,73.751404 184.733719,72.990883 
	C184.287018,74.653564 183.452713,76.315636 183.450119,77.979012 
	C183.379883,123.049461 183.390167,168.120041 183.414337,213.190598 
	C183.415192,214.775864 183.696350,216.360947 183.991409,219.468521 
	C186.357712,217.409744 187.716400,216.227646 189.006287,215.003937 
	C189.006287,215.003937 189.028595,215.081177 189.527496,214.901566 
	C189.712555,214.610306 189.897598,214.319046 190.007034,214.006683 
	C190.007034,214.006683 190.028976,214.082077 190.528122,213.902344 
	C190.713272,213.610962 190.898438,213.319595 191.007370,213.007080 
	C191.007370,213.007080 191.029358,213.083069 191.528687,212.903061 
	C191.713943,212.611557 191.899185,212.320053 192.007629,212.007431 
	C192.007629,212.007431 192.029739,212.083954 192.529190,211.903702 
	C192.714432,211.612061 192.899673,211.320404 193.007843,211.007614 
	C193.007843,211.007614 193.029999,211.084396 193.529510,210.904053 
	C193.714661,210.612289 193.899796,210.320541 194.007812,210.007629 
	C194.007812,210.007629 194.030090,210.084427 194.529419,209.904007 
	C194.714371,209.612213 194.899323,209.320419 195.007538,209.007416 
	C195.007538,209.007416 195.029846,209.083817 195.528946,208.903442 
	C195.713806,208.611740 195.898666,208.320038 196.007309,208.007080 
	C196.007309,208.007080 196.029587,208.082993 196.528381,207.902740 
	C196.713196,207.611191 196.898026,207.319641 197.007050,207.006821 
	C197.007050,207.006821 197.029327,207.082336 197.527985,206.902206 
	C197.712952,206.610855 197.897919,206.319504 198.007065,206.006821 
	C198.007065,206.006821 198.029373,206.082382 198.527908,205.902008 
	C198.712936,205.610764 198.897980,205.319519 199.007111,205.006882 
	C199.007111,205.006882 199.029510,205.082520 199.527908,204.901886 
	C199.713013,204.610733 199.898117,204.319580 200.007202,204.006927 
	C200.007202,204.006927 200.029617,204.082687 200.528046,203.901978 
	C200.713272,203.610840 200.898499,203.319702 201.007401,203.007095 
	C201.007401,203.007095 201.029816,203.083145 201.528549,202.902603 
	C201.713821,202.611343 201.899094,202.320084 202.007629,202.007401 
	C202.007629,202.007401 202.030060,202.083847 202.528915,201.903076 
	C202.714127,201.611633 202.899338,201.320190 203.004837,201.007553 
	C203.004837,201.007553 203.047318,201.078262 203.623779,200.835236 
	C204.441879,199.905777 205.259979,198.976334 206.007492,198.004456 
	C206.007492,198.004456 206.029617,198.083786 206.528778,197.903229 
	C206.714111,197.611679 206.899445,197.320129 207.007812,197.007553 
	C207.007812,197.007553 207.029800,197.084244 207.529190,196.903793 
	C207.714554,196.612137 207.899918,196.320480 208.007980,196.007721 
	C208.007980,196.007721 208.030106,196.084732 208.529648,195.904312 
	C208.715012,195.612579 208.900375,195.320831 209.008163,195.007950 
	C209.008163,195.007950 209.030365,195.085236 209.529999,194.904770 
	C209.715363,194.612946 209.900711,194.321121 210.008270,194.008133 
	C210.008270,194.008133 210.030533,194.085632 210.530106,193.904892 
	C210.715408,193.612991 210.900696,193.321091 211.008209,193.008087 
	C211.008209,193.008087 211.030472,193.085541 211.529892,192.904648 
	C211.715088,192.612732 211.900284,192.320831 212.008041,192.007858 
	C212.008041,192.007858 212.030212,192.084991 212.529495,191.904190 
	C212.714554,191.612335 212.899612,191.320465 213.007721,191.007492 
	C213.007721,191.007492 213.029907,191.084137 213.529129,190.903702 
	C213.714050,190.611923 213.898972,190.320145 214.007431,190.007233 
	C214.007431,190.007233 214.029678,190.083389 214.528778,189.903214 
	C214.713486,189.611511 214.898193,189.319809 215.007095,189.006882 
	C215.007095,189.006882 215.029327,189.082413 215.528244,188.902451 
	C215.712784,188.610855 215.897324,188.319260 216.006668,188.006516 
	C216.006668,188.006516 216.028915,188.081406 216.527710,187.901764 
	C216.712189,187.610275 216.896667,187.318802 217.006424,187.006226 
	C217.006424,187.006226 217.028534,187.080673 217.527603,186.901657 
	C217.712158,186.610214 217.896713,186.318787 218.006470,186.006256 
	C218.006470,186.006256 218.028519,186.080780 218.527878,185.902054 
	C218.712570,185.610565 218.897278,185.319092 219.006744,185.006485 
	C219.006744,185.006485 219.028778,185.081467 219.528229,184.902542 
	C219.713120,184.611038 219.898010,184.319534 220.004364,184.006927 
	C220.004364,184.006927 220.046570,184.076447 220.646698,183.815018 
	C222.123245,182.225494 223.599777,180.635956 225.006897,179.003967 
	C225.006897,179.003967 225.029236,179.082199 225.528961,178.903198 
	C225.712067,178.610718 225.895157,178.318237 226.005447,178.005280 
	C226.005447,178.005280 226.026993,178.077805 226.527390,177.901581 
	C226.709946,177.609146 226.892487,177.316711 227.004471,177.004242 
	C227.004471,177.004242 227.025330,177.074554 227.526474,176.900879 
	C227.710999,176.609406 227.895508,176.317932 228.006424,176.005371 
	C228.006424,176.005371 228.027283,176.079071 228.532928,175.909836 
	C228.717865,175.616714 228.902802,175.323578 229.008804,175.008972 
	C229.008804,175.008972 229.031601,175.087555 229.531204,174.906097 
	C229.716019,174.613815 229.900848,174.321518 230.008118,174.007904 
	C230.008118,174.007904 230.030548,174.085144 230.531204,173.906296 
	C230.716171,173.614044 230.901138,173.321793 231.008270,173.008072 
	C231.008270,173.008072 231.030777,173.085617 231.531265,172.906311 
	C231.716003,172.613937 231.900742,172.321564 232.008011,172.007919 
	C232.008011,172.007919 232.030487,172.085068 232.529800,171.904358 
	C232.714844,171.612534 232.899887,171.320694 233.007828,171.007645 
	C233.007828,171.007645 233.030136,171.084427 233.529633,170.904190 
	C233.714874,170.612457 233.900116,170.320709 234.008041,170.007721 
	C234.008041,170.007721 234.030228,170.084778 234.529755,169.904358 
	C234.715027,169.612595 234.900299,169.320831 235.008057,169.007843 
	C235.008057,169.007843 235.030334,169.085052 235.529694,168.904312 
	C235.715012,168.612579 235.900345,168.320847 236.008087,168.007965 
	C236.008087,168.007965 236.030365,168.085236 236.529648,167.904236 
	C236.715042,167.612549 236.900452,167.320847 237.008179,167.008026 
	C237.008179,167.008026 237.030426,167.085388 237.529877,166.904556 
	C237.715393,166.612839 237.900909,166.321136 238.008469,166.008179 
	C238.008469,166.008179 238.030640,166.085892 238.530563,165.905487 
	C238.716064,165.613541 238.901566,165.321609 239.008682,165.008499 
	C239.008682,165.008499 239.030945,165.086578 239.531113,164.906174 
	C239.716568,164.614075 239.902023,164.321976 240.008850,164.008652 
	C240.008850,164.008652 240.031174,164.086975 240.531479,163.906631 
	C240.716888,163.614395 240.902298,163.322159 241.008942,163.008743 
	C241.008942,163.008743 241.031235,163.087204 241.531662,162.906891 
	C241.716919,162.614517 241.902176,162.322144 242.008789,162.008667 
	C242.008789,162.008667 242.031097,162.086975 242.531204,161.906326 
	C242.716385,161.614014 242.901550,161.321701 243.008530,161.008347 
	C243.008530,161.008347 243.030716,161.086212 243.530533,160.905487 
	C243.715729,160.613358 243.900909,160.321228 244.008286,160.008163 
	C244.008286,160.008163 244.030411,160.085648 244.530060,159.904907 
	C244.715393,159.612946 244.900726,159.320999 245.008270,159.008118 
	C245.008270,159.008118 245.030304,159.085617 245.530136,158.905075 
	C245.715714,158.613190 245.901306,158.321304 246.008636,158.008362 
	C246.008636,158.008362 246.030685,158.086334 246.530838,157.905914 
	C246.716476,157.613907 246.902130,157.321899 247.008957,157.008743 
	C247.008957,157.008743 247.031281,157.087219 247.531387,156.906250 
	C247.714706,156.613159 247.898026,156.320068 248.006088,156.006897 
	C248.006088,156.006897 248.028610,156.081436 248.522232,155.894272 
	C248.705521,155.603714 248.888794,155.313156 249.003830,155.003052 
	C249.003830,155.003052 249.023712,155.071213 249.524612,154.898575 
	C249.708832,154.607422 249.893051,154.316284 250.003510,154.004791 
	C250.003510,154.004791 250.041519,154.071198 250.621460,153.834839 
	C251.434372,152.901016 252.247284,151.967194 253.001312,151.001999 
	C253.001312,151.001999 253.021240,151.065689 253.516357,150.887772 
	C253.697937,150.597916 253.879532,150.308060 254.001236,150.000763 
	C254.001236,150.000763 254.019089,150.060516 254.515976,149.887589 
	C254.698639,149.598267 254.881287,149.308929 255.001724,149.001373 
	C255.001724,149.001373 255.020447,149.063446 255.516495,148.888199 
	C255.700058,148.599228 255.883636,148.310257 256.008392,147.994507 
	C256.008392,147.994507 256.032166,148.054504 256.669281,147.779709 
	C258.850952,145.860138 258.507416,144.252213 256.033325,142.999817 
	C256.033325,142.999817 256.123413,142.950668 255.943314,142.439087 
	C255.644730,142.251404 255.346161,142.063736 255.025238,141.974976 
	C255.025238,141.974976 255.123581,141.950211 254.941467,141.440979 
	C254.641037,141.257095 254.340591,141.073227 254.020432,140.979721 
	C254.020432,140.979721 254.110367,140.958023 253.932297,140.447311 
	C253.636993,140.257751 253.341675,140.068192 253.024536,139.975769 
	C253.024536,139.975769 253.121185,139.951935 252.938721,139.442780 
	C252.640350,139.256302 252.341965,139.069824 252.023102,138.977036 
	C252.023102,138.977036 252.116302,138.954453 251.935547,138.445389 
	C251.638229,138.258163 251.340897,138.070953 251.023117,137.977188 
	C251.023117,137.977188 251.116074,137.954636 250.936859,137.443893 
	C250.640656,137.254395 250.344467,137.064896 250.025604,136.974686 
	C250.025604,136.974686 250.124344,136.949646 249.942795,136.439896 
	C249.642715,136.255020 249.342636,136.070145 249.022537,135.977554 
	C249.022537,135.977554 249.114365,135.955505 248.935104,135.445404 
	C248.639130,135.256119 248.343140,135.066833 248.025085,134.975357 
	C248.025085,134.975357 248.122345,134.950897 247.941864,134.439972 
	C247.643646,134.252289 247.345428,134.064590 247.025040,133.975098 
	C247.025040,133.975098 247.122635,133.950455 246.939758,133.442322 
	C246.639404,133.259033 246.339066,133.075729 246.018677,132.981522 
	C246.018677,132.981522 246.107269,132.959442 245.929092,132.449554 
	C245.634659,132.259644 245.340240,132.069717 245.024353,131.976120 
	C245.024353,131.976120 245.120132,131.952438 244.937912,131.443344 
	C244.639694,131.256882 244.341461,131.070419 244.022903,130.977249 
	C244.022903,130.977249 244.115707,130.954819 243.935303,130.445602 
	C243.637985,130.258408 243.340668,130.071213 243.022949,129.977249 
	C243.022949,129.977249 243.115738,129.954910 242.936508,129.444382 
	C242.639877,129.255615 242.343262,129.066849 242.024750,128.975510 
	C242.024750,128.975510 242.121628,128.951279 241.940277,128.442047 
	C241.640610,128.257187 241.340942,128.072327 241.021469,127.978645 
	C241.021469,127.978645 241.112198,127.956886 240.933456,127.446815 
	C240.637878,127.257278 240.342316,127.067734 240.024887,126.975624 
	C240.024887,126.975624 240.121750,126.951355 239.941574,126.440369 
	C239.643387,126.252678 239.345200,126.064995 239.024887,125.975182 
	C239.024887,125.975182 239.122208,125.950729 238.939453,125.442650 
	C238.639038,125.259491 238.338638,125.076332 238.018173,124.981857 
	C238.018173,124.981857 238.106430,124.960022 237.928360,124.450478 
	C237.634216,124.260269 237.340073,124.070053 237.024414,123.976067 
M156.984344,203.626526 
	C157.290329,203.815643 157.596329,204.004745 157.917587,204.081039 
	C157.917587,204.081039 157.805649,204.101837 157.984009,204.626541 
	C158.290039,204.815781 158.596085,205.005005 158.917496,205.081177 
	C158.917496,205.081177 158.805328,205.101990 158.983734,205.626694 
	C159.289749,205.815948 159.595749,206.005219 159.916626,206.080826 
	C159.916626,206.080826 159.804031,206.102234 159.977356,206.630417 
	C160.280197,206.824219 160.583023,207.018021 160.902863,207.093613 
	C160.902863,207.093613 160.786102,207.118729 160.959961,207.648483 
	C161.268600,207.836700 161.577240,208.024918 161.903564,208.094467 
	C161.903564,208.094467 161.786118,208.118958 161.959961,208.648575 
	C162.268539,208.836746 162.577103,209.024918 162.901520,209.092743 
	C162.901520,209.092743 162.783020,209.119003 162.942337,209.655838 
	C163.241486,209.855026 163.540634,210.054214 163.860107,210.128616 
	C163.860107,210.128616 163.739670,210.167099 163.900085,210.706131 
	C164.213104,210.890503 164.526138,211.074875 164.862427,211.131989 
	C164.862427,211.131989 164.738190,211.168076 164.896194,211.707504 
	C165.207611,211.893463 165.519028,212.079437 165.853592,212.138336 
	C165.853592,212.138336 165.730606,212.177765 165.887543,212.717590 
	C166.199829,212.901962 166.512115,213.086334 166.848923,213.143768 
	C166.848923,213.143768 166.726074,213.184082 166.882706,213.723938 
	C167.196014,213.906799 167.509323,214.089676 167.766800,214.178650 
	C167.766800,214.178650 167.712311,214.273315 167.957047,214.915756 
	C169.723526,216.686554 171.937592,218.280701 172.001755,214.123978 
	C172.226715,199.550201 172.089020,184.970840 172.089020,169.054291 
	C170.113358,170.510376 169.084930,171.268341 167.484268,172.277252 
	C166.664749,173.204773 165.845215,174.132294 164.490799,175.288879 
	C164.206848,175.774414 163.922913,176.259949 163.791931,176.782990 
	C163.791931,176.782990 163.735916,176.635803 163.170227,176.749664 
	C162.799866,177.174927 162.429489,177.600189 161.452423,178.305283 
	C157.310287,182.555847 153.168167,186.806427 148.463959,191.303101 
	C148.612335,192.577744 148.760712,193.852371 148.955246,195.049896 
	C148.955246,195.049896 148.865662,195.057175 149.049286,195.566940 
	C149.345245,195.759705 149.641190,195.952469 149.949814,196.050964 
	C149.949814,196.050964 149.855194,196.060608 150.035690,196.587540 
	C150.334427,196.796051 150.633163,197.004578 151.161469,197.709854 
	C151.315125,197.808182 151.468781,197.906509 151.865662,198.532303 
	C153.211395,199.754761 154.557144,200.977203 155.920990,202.084488 
	C155.920990,202.084488 155.805786,202.102493 155.984558,202.626617 
	C156.290421,202.815659 156.596283,203.004684 156.917435,203.081177 
	C156.917435,203.081177 156.805801,203.102051 156.984344,203.626526 
M146.039948,252.816956 
	C152.392471,246.484009 158.711288,240.116638 165.119171,233.840225 
	C166.913467,232.082779 167.800858,230.685287 165.517563,228.545532 
	C158.985031,222.423645 152.591965,216.152939 145.778854,209.260666 
	C144.722839,208.779755 143.666809,208.298843 141.968307,207.525345 
	C141.968307,222.888489 141.940918,237.315125 141.990570,251.741501 
	C142.000977,254.764816 143.537994,254.631424 146.039948,252.816956 
M156.494720,68.975006 
	C141.758713,68.981888 127.022697,68.988770 113.521988,68.995071 
	C133.264267,88.752403 152.851044,108.354095 172.241898,127.759735 
	C172.069427,128.137985 172.691849,127.407318 172.694366,126.674515 
	C172.756561,108.551666 172.820740,90.427765 172.598770,72.307556 
	C172.584991,71.183182 170.323639,69.292976 168.946579,69.130966 
	C165.174454,68.687149 161.316132,68.975952 156.494720,68.975006 
M299.417664,80.997772 
	C292.921387,81.005508 286.420532,81.161270 279.930603,80.962051 
	C276.386169,80.853241 274.784332,81.807358 274.887512,85.696571 
	C275.117065,94.352058 274.929993,103.018021 274.991699,111.679153 
	C275.001404,113.041924 275.424438,114.401756 275.523926,114.985695 
	C286.617371,103.906441 297.661530,92.876427 309.555756,80.997398 
	C306.350647,80.997398 303.367615,80.997398 299.417664,80.997772 
M310.998749,137.500000 
	C310.998749,183.350830 310.998749,229.201660 310.998749,275.052490 
	C311.232971,275.051544 311.467194,275.050568 311.701416,275.049622 
	C311.701416,204.079819 311.701416,133.110016 311.701416,62.140213 
	C311.467194,62.140072 311.232971,62.139931 310.998749,62.139786 
	C310.998749,86.926521 310.998749,111.713264 310.998749,137.500000 
M109.000000,65.050522 
	C109.000000,134.289581 109.000000,203.528656 109.000000,272.767700 
	C109.221527,272.766846 109.443062,272.765961 109.664589,272.765076 
	C109.664589,202.605194 109.664589,132.445312 109.664589,62.285439 
	C109.484261,62.282341 109.303932,62.279243 109.123604,62.276142 
	C109.082451,62.922386 109.041298,63.568630 109.000000,65.050522 
z"/>
<path fill="#7A52AA" opacity="1.000000" stroke="none" 
	d="
M208.182236,94.948502 
	C208.506958,94.989128 208.751251,95.151070 209.074066,95.903778 
	C209.527328,96.567390 209.821609,96.761543 210.115906,96.955696 
	C210.115906,96.955696 210.022369,96.976845 210.130066,97.180099 
	C210.530273,97.573952 210.822815,97.764534 211.115341,97.955116 
	C211.115341,97.955116 211.022858,97.977516 211.130432,98.180756 
	C211.530716,98.574211 211.823441,98.764435 212.116165,98.954651 
	C212.116165,98.954651 212.023010,98.977196 212.131012,99.180511 
	C212.532928,99.573250 212.826859,99.762672 213.120789,99.952087 
	C213.120789,99.952087 213.024582,99.975983 213.129807,100.177658 
	C213.523621,100.573837 213.812225,100.768349 214.100815,100.962852 
	C214.100815,100.962852 214.015152,100.984901 214.126846,101.188728 
	C214.532272,101.579041 214.826004,101.765526 215.119736,101.952011 
	C215.119736,101.952011 215.024200,101.975800 215.131638,102.178520 
	C215.532410,102.571770 215.825745,102.762299 216.119080,102.952835 
	C216.119080,102.952835 216.024017,102.976288 216.131409,103.178963 
	C216.531799,103.572296 216.824783,103.762955 217.117767,103.953613 
	C217.117767,103.953613 217.023499,103.976608 217.131485,104.179703 
	C217.533508,104.572418 217.827560,104.762039 218.121597,104.951660 
	C218.121597,104.951660 218.024597,104.975662 218.131470,105.177902 
	C218.530945,105.571678 218.823547,105.763222 219.116165,105.954765 
	C219.116165,105.954765 219.023010,105.977234 219.130600,106.180359 
	C219.531036,106.573761 219.823898,106.764053 220.116745,106.954338 
	C220.116745,106.954338 220.023193,106.977043 220.130859,107.180161 
	C220.531784,107.573341 220.825043,107.763412 221.118317,107.953476 
	C221.118317,107.953476 221.023895,107.976685 221.129425,108.178711 
	C221.523468,108.574814 221.812012,108.768890 222.100540,108.962975 
	C222.100540,108.962975 222.014999,108.985001 222.126740,109.188782 
	C222.532013,109.579109 222.825577,109.765671 223.119125,109.952225 
	C223.119125,109.952225 223.024124,109.975975 223.131653,110.178696 
	C223.532349,110.571877 223.825500,110.762337 224.118668,110.952805 
	C224.118668,110.952805 224.024017,110.976257 224.131409,111.178894 
	C224.531296,111.572426 224.823792,111.763321 225.116272,111.954208 
	C225.116272,111.954208 225.023239,111.976944 225.131409,112.180099 
	C225.533157,112.572800 225.826736,112.762337 226.120331,112.951874 
	C226.120331,112.951874 226.024445,112.975807 226.131836,113.178253 
	C226.532120,113.571602 226.825027,113.762505 227.117935,113.953400 
	C227.117935,113.953400 227.023697,113.976547 227.131317,114.179337 
	C227.531830,114.572617 227.824707,114.763092 228.117584,114.953575 
	C228.117584,114.953575 228.023575,114.976616 228.131378,115.179581 
	C228.532516,115.572639 228.825836,115.762741 229.119141,115.952835 
	C229.119141,115.952843 229.024109,115.976265 229.130005,116.178391 
	C229.525375,116.574020 229.814865,116.767525 230.104355,116.961029 
	C230.104355,116.961029 230.016998,116.983040 230.127716,117.186722 
	C230.531906,117.577774 230.825394,117.765144 231.118881,117.952515 
	C231.118881,117.952507 231.023956,117.976059 231.131241,118.178818 
	C231.531296,118.572380 231.824066,118.763184 232.116837,118.953995 
	C232.116837,118.953995 232.023346,118.976799 232.130646,119.179756 
	C232.530167,119.573586 232.822372,119.764458 233.114563,119.955338 
	C233.114563,119.955338 233.022644,119.977478 233.130859,120.181053 
	C233.532852,120.573830 233.826630,120.763031 234.120392,120.952225 
	C234.120392,120.952225 234.024246,120.975967 234.131439,121.178452 
	C234.531723,121.571846 234.824799,121.762749 235.117874,121.953644 
	C235.117874,121.953651 235.023575,121.976700 235.131165,122.179596 
	C235.531967,122.572746 235.825180,122.762993 236.118378,122.953247 
	C236.118378,122.953247 236.023743,122.976486 236.131485,123.179382 
	C236.532852,123.572304 236.826477,123.762314 237.120102,123.952324 
	C237.120102,123.952324 237.024414,123.976067 237.130371,124.178131 
	C237.526367,124.573471 237.816406,124.766747 238.106430,124.960022 
	C238.106430,124.960022 238.018173,124.981857 238.128662,125.185684 
	C238.533493,125.576576 238.827850,125.763657 239.122208,125.950729 
	C239.122208,125.950729 239.024887,125.975182 239.132248,126.177673 
	C239.533661,126.570557 239.827698,126.760956 240.121750,126.951355 
	C240.121750,126.951355 240.024887,126.975624 240.131271,127.177689 
	C240.529175,127.572128 240.820679,127.764511 241.112198,127.956886 
	C241.112198,127.956886 241.021469,127.978645 241.130356,128.182358 
	C241.533371,128.574478 241.827499,128.762878 242.121628,128.951279 
	C242.121628,128.951279 242.024750,128.975510 242.131546,129.177765 
	C242.530807,129.571655 242.823273,129.763290 243.115738,129.954910 
	C243.115738,129.954910 243.022949,129.977249 243.130478,130.180420 
	C243.530579,130.573990 243.823151,130.764404 244.115707,130.954819 
	C244.115707,130.954819 244.022903,130.977249 244.130920,131.180634 
	C244.532669,131.573486 244.826401,131.762955 245.120132,131.952438 
	C245.120132,131.952438 245.024353,131.976120 245.130280,132.178268 
	C245.526566,132.573425 245.816910,132.766434 246.107269,132.959442 
	C246.107269,132.959442 246.018677,132.981522 246.128906,133.185364 
	C246.533646,133.576279 246.828140,133.763367 247.122635,133.950455 
	C247.122635,133.950455 247.025040,133.975098 247.132446,134.177490 
	C247.534012,134.570221 247.828186,134.760559 248.122345,134.950897 
	C248.122345,134.950897 248.025085,134.975357 248.131699,135.177383 
	C248.530319,135.571442 248.822342,135.763474 249.114365,135.955505 
	C249.114365,135.955505 249.022537,135.977554 249.131348,136.181213 
	C249.534882,136.573120 249.829605,136.761383 250.124344,136.949646 
	C250.124344,136.949646 250.025604,136.974686 250.132172,137.176483 
	C250.531174,137.570419 250.823624,137.762527 251.116074,137.954636 
	C251.116074,137.954636 251.023117,137.977188 251.130737,138.180267 
	C251.531006,138.573715 251.823654,138.764084 252.116302,138.954453 
	C252.116302,138.954453 252.023102,138.977036 252.131210,139.180344 
	C252.533279,139.573074 252.827225,139.762512 253.121185,139.951935 
	C253.121185,139.951935 253.024536,139.975769 253.130661,140.177948 
	C253.527985,140.572754 253.819168,140.765381 254.110367,140.958023 
	C254.110367,140.958023 254.020432,140.979721 254.129822,141.183670 
	C254.534012,141.575150 254.828796,141.762680 255.123581,141.950211 
	C255.123581,141.950211 255.025238,141.974976 255.132446,142.177399 
	C255.534241,142.570114 255.828827,142.760391 256.123413,142.950668 
	C256.123413,142.950668 256.033325,142.999817 256.023193,143.382172 
	C256.019409,145.194534 256.025787,146.624512 256.032166,148.054504 
	C256.032166,148.054504 256.008392,147.994507 255.799530,148.108932 
	C255.400574,148.503387 255.210510,148.783417 255.020447,149.063446 
	C255.020447,149.063446 255.001724,149.001373 254.795441,149.112091 
	C254.399124,149.502060 254.209091,149.781281 254.019073,150.060516 
	C254.019089,150.060516 254.001236,150.000763 253.794067,150.112366 
	C253.398346,150.504532 253.209793,150.785110 253.021240,151.065689 
	C253.021240,151.065689 253.001312,151.001999 252.650543,151.012390 
	C251.547012,152.038925 250.794266,153.055069 250.041519,154.071198 
	C250.041519,154.071198 250.003510,154.004791 249.799911,154.115173 
	C249.405441,154.507446 249.214584,154.789337 249.023712,155.071213 
	C249.023712,155.071213 249.003830,155.003052 248.798157,155.115616 
	C248.404526,155.512589 248.216568,155.797012 248.028610,156.081436 
	C248.028610,156.081436 248.006088,156.006897 247.801910,156.118439 
	C247.408920,156.515717 247.220093,156.801468 247.031281,157.087219 
	C247.031281,157.087219 247.008957,157.008743 246.805405,157.119415 
	C246.411453,157.515488 246.221069,157.800919 246.030685,158.086334 
	C246.030685,158.086334 246.008636,158.008362 245.804977,158.119110 
	C245.410980,158.515091 245.220642,158.800354 245.030304,159.085617 
	C245.030304,159.085617 245.008270,159.008118 244.804565,159.118973 
	C244.410706,159.515106 244.220551,159.800369 244.030411,160.085648 
	C244.030411,160.085648 244.008286,160.008163 243.804550,160.119049 
	C243.410782,160.515366 243.220734,160.800781 243.030701,161.086212 
	C243.030716,161.086212 243.008530,161.008347 242.804855,161.119293 
	C242.411148,161.515808 242.221115,161.801392 242.031097,162.086975 
	C242.031097,162.086975 242.008789,162.008667 241.805206,162.119507 
	C241.411484,162.515961 241.221359,162.801575 241.031235,163.087204 
	C241.031235,163.087204 241.008942,163.008743 240.805389,163.119537 
	C240.411621,163.515884 240.221390,163.801422 240.031174,164.086975 
	C240.031174,164.086975 240.008850,164.008652 239.805267,164.119446 
	C239.411438,164.515686 239.221176,164.801117 239.030945,165.086578 
	C239.030945,165.086578 239.008682,165.008499 238.805099,165.119278 
	C238.411224,165.515335 238.220917,165.800613 238.030640,166.085876 
	C238.030640,166.085892 238.008469,166.008179 237.804840,166.119080 
	C237.410950,166.515121 237.220703,166.800262 237.030426,167.085388 
	C237.030426,167.085388 237.008179,167.008026 236.804504,167.118958 
	C236.410675,167.514984 236.220520,167.800110 236.030365,168.085236 
	C236.030365,168.085236 236.008087,168.007965 235.804413,168.118896 
	C235.410599,168.514893 235.220459,168.799973 235.030334,169.085052 
	C235.030334,169.085052 235.008057,169.007843 234.804352,169.118774 
	C234.410507,169.514740 234.220367,169.799759 234.030243,170.084778 
	C234.030228,170.084778 234.008041,170.007721 233.804260,170.118622 
	C233.410370,170.514496 233.220245,170.799454 233.030121,171.084412 
	C233.030136,171.084427 233.007828,171.007645 232.803925,171.118561 
	C232.410172,171.514679 232.220322,171.799866 232.030487,172.085068 
	C232.030487,172.085068 232.008011,172.007919 231.804077,172.118652 
	C231.410339,172.514801 231.220566,172.800217 231.030777,173.085617 
	C231.030777,173.085617 231.008270,173.008072 230.804382,173.118668 
	C230.410522,173.514557 230.220535,173.799850 230.030548,174.085144 
	C230.030548,174.085144 230.008118,174.007904 229.804047,174.118851 
	C229.410522,174.515717 229.221054,174.801636 229.031586,175.087555 
	C229.031601,175.087555 229.008804,175.008972 228.805435,175.118469 
	C228.410477,175.511658 228.218887,175.795364 228.027283,176.079071 
	C228.027283,176.079071 228.006424,176.005371 227.802094,176.115967 
	C227.406952,176.509232 227.216141,176.791885 227.025330,177.074554 
	C227.025330,177.074554 227.004471,177.004242 226.799393,177.115677 
	C226.405197,177.510681 226.216080,177.794235 226.026978,178.077789 
	C226.026993,178.077805 226.005447,178.005280 225.800674,178.116730 
	C225.407013,178.512833 225.218124,178.797516 225.029236,179.082199 
	C225.029236,179.082199 225.006897,179.003967 224.660828,179.012589 
	C221.182846,179.263214 219.885666,181.054291 220.046570,184.076447 
	C220.046570,184.076447 220.004364,184.006927 219.801682,184.117676 
	C219.408920,184.512772 219.218857,184.797119 219.028778,185.081467 
	C219.028778,185.081467 219.006744,185.006485 218.802612,185.117355 
	C218.408493,185.512421 218.218521,185.796600 218.028534,186.080780 
	C218.028519,186.080780 218.006470,186.006256 217.802277,186.117249 
	C217.408234,186.512405 217.218384,186.796539 217.028534,187.080673 
	C217.028534,187.080673 217.006424,187.006226 216.802246,187.117401 
	C216.408371,187.512863 216.218643,187.797134 216.028931,188.081421 
	C216.028915,188.081406 216.006668,188.006516 215.802582,188.117706 
	C215.408768,188.513412 215.219055,188.797928 215.029327,189.082428 
	C215.029327,189.082413 215.007095,189.006882 214.803040,189.118027 
	C214.409210,189.513901 214.219437,189.798645 214.029663,190.083389 
	C214.029678,190.083389 214.007431,190.007233 213.803482,190.118286 
	C213.409653,190.514267 213.219788,190.799194 213.029907,191.084137 
	C213.029907,191.084137 213.007721,191.007492 212.803833,191.118530 
	C212.410034,191.514709 212.220123,191.799850 212.030212,192.084991 
	C212.030212,192.084991 212.008041,192.007858 211.804260,192.118820 
	C211.410461,192.515030 211.220459,192.800278 211.030457,193.085541 
	C211.030472,193.085541 211.008209,193.008087 210.804489,193.118958 
	C210.410690,193.515106 210.220596,193.800369 210.030518,194.085632 
	C210.030533,194.085632 210.008270,194.008133 209.804550,194.118927 
	C209.410675,194.514893 209.220505,194.800064 209.030365,195.085236 
	C209.030365,195.085236 209.008163,195.007950 208.804398,195.118744 
	C208.410446,195.514603 208.220276,195.799667 208.030106,196.084732 
	C208.030106,196.084732 208.007980,196.007721 207.804199,196.118561 
	C207.410217,196.514343 207.220016,196.799301 207.029816,197.084244 
	C207.029800,197.084244 207.007812,197.007553 206.804001,197.118423 
	C206.410004,197.514130 206.219818,197.798965 206.029633,198.083801 
	C206.029617,198.083786 206.007492,198.004456 205.660980,198.016342 
	C204.558762,199.044907 203.803040,200.061584 203.047318,201.078262 
	C203.047318,201.078262 203.004837,201.007553 202.802521,201.118561 
	C202.410156,201.514328 202.220108,201.799088 202.030060,202.083847 
	C202.030060,202.083847 202.007629,202.007401 201.803894,202.118423 
	C201.410049,202.514008 201.219925,202.798569 201.029816,203.083145 
	C201.029816,203.083145 201.007401,203.007095 200.803589,203.118210 
	C200.409729,203.513779 200.219681,203.798233 200.029617,204.082687 
	C200.029617,204.082687 200.007202,204.006927 199.803345,204.118103 
	C199.409485,204.513672 199.219498,204.798096 199.029510,205.082520 
	C199.029510,205.082520 199.007111,205.006882 198.803177,205.117981 
	C198.409286,205.513504 198.219330,205.797943 198.029373,206.082382 
	C198.029373,206.082382 198.007065,206.006821 197.803101,206.117889 
	C197.409195,206.513428 197.219254,206.797882 197.029327,207.082336 
	C197.029327,207.082336 197.007050,207.006821 196.803040,207.117966 
	C196.409210,207.513733 196.219391,207.798355 196.029587,208.082993 
	C196.029587,208.082993 196.007309,208.007080 195.803345,208.118225 
	C195.409546,208.514191 195.219711,208.799011 195.029846,209.083832 
	C195.029846,209.083817 195.007538,209.007416 194.803696,209.118500 
	C194.409927,209.514526 194.220016,209.799484 194.030090,210.084427 
	C194.030090,210.084427 194.007812,210.007629 193.804077,210.118622 
	C193.410217,210.514542 193.220108,210.799469 193.029999,211.084396 
	C193.029999,211.084396 193.007843,211.007614 192.804077,211.118530 
	C192.410110,211.514297 192.219925,211.799133 192.029739,212.083954 
	C192.029739,212.083954 192.007629,212.007431 191.803818,212.118286 
	C191.409790,212.513779 191.219574,212.798431 191.029358,213.083069 
	C191.029358,213.083069 191.007370,213.007080 190.803436,213.117920 
	C190.409332,213.513214 190.219162,213.797653 190.028976,214.082077 
	C190.028976,214.082077 190.007034,214.006683 189.802963,214.117523 
	C189.408798,214.512634 189.218689,214.796906 189.028595,215.081177 
	C189.028595,215.081177 189.006287,215.003937 188.612457,215.005692 
	C184.917679,215.304077 184.982941,213.108917 184.984055,210.792557 
	C185.005112,167.300568 185.026382,123.808517 184.944489,80.316681 
	C184.938568,77.169151 185.741714,75.520805 189.108521,75.927132 
	C189.108521,75.927132 189.023605,75.985893 189.129547,76.184181 
	C189.524338,76.575645 189.813202,76.768822 190.102066,76.961998 
	C190.102066,76.961998 190.015747,76.984207 190.126923,77.187729 
	C190.530884,77.578735 190.823669,77.766212 191.116440,77.953690 
	C191.116440,77.953690 191.023361,77.976662 191.130829,78.179588 
	C191.530334,78.573380 191.822342,78.764252 192.114365,78.955116 
	C192.114365,78.955116 192.022659,78.977470 192.130356,79.180649 
	C192.529892,79.574409 192.821747,79.764992 193.113586,79.955566 
	C193.113586,79.955566 193.022186,79.977837 193.130524,80.181305 
	C193.531952,80.574249 193.825058,80.763733 194.118149,80.953217 
	C194.118149,80.953217 194.023773,80.976456 194.130646,81.179077 
	C194.529037,81.573410 194.820541,81.765121 195.112061,81.956833 
	C195.112061,81.956825 195.021347,81.978790 195.129547,82.182236 
	C195.530167,82.575500 195.822586,82.765335 196.114990,82.955162 
	C196.114990,82.955162 196.022690,82.977432 196.130432,83.180733 
	C196.530960,83.574181 196.823761,83.764328 197.116562,83.954475 
	C197.116562,83.954475 197.023300,83.977112 197.129074,84.179565 
	C197.523804,84.575470 197.812744,84.768921 198.101700,84.962372 
	C198.101700,84.962372 198.015625,84.984467 198.126938,85.188293 
	C198.531891,85.578911 198.825531,85.765686 199.119171,85.952469 
	C199.119171,85.952469 199.024017,85.976112 199.131409,86.178871 
	C199.531982,86.572174 199.825165,86.762718 200.118362,86.953262 
	C200.118362,86.953262 200.023804,86.976494 200.130829,87.179138 
	C200.529846,87.573143 200.821838,87.764519 201.113815,87.955887 
	C201.113815,87.955887 201.022324,87.977722 201.130630,88.181335 
	C201.532486,88.574242 201.826035,88.763542 202.119583,88.952850 
	C202.119583,88.952843 202.023987,88.976212 202.130249,89.178329 
	C202.526886,89.573364 202.817291,89.766281 203.107681,89.959190 
	C203.107681,89.959190 203.018753,89.981056 203.128479,90.184631 
	C203.531235,90.576744 203.824265,90.765282 204.117310,90.953812 
	C204.117310,90.953812 204.023438,90.977074 204.133499,91.180870 
	C204.542725,91.569206 204.841904,91.753746 205.141068,91.938286 
	C205.141068,91.938286 205.032074,91.971504 205.143906,92.174538 
	C205.560989,92.569336 205.866241,92.761101 206.171494,92.952873 
	C206.483475,92.982750 206.730865,93.124985 207.081451,93.856705 
	C207.560242,94.538727 207.871231,94.743614 208.182236,94.948502 
z"/>
<path fill="#7B55A9" opacity="1.000000" stroke="none" 
	d="
M156.993332,68.974854 
	C161.316132,68.975952 165.174454,68.687149 168.946579,69.130966 
	C170.323639,69.292976 172.584991,71.183182 172.598770,72.307556 
	C172.820740,90.427765 172.756561,108.551666 172.694366,126.674515 
	C172.691849,127.407318 172.069427,128.137985 172.241898,127.759735 
	C152.851044,108.354095 133.264267,88.752403 113.521988,68.995071 
	C127.022697,68.988770 141.758713,68.981888 156.993332,68.974854 
z"/>
<path fill="#7C57A8" opacity="1.000000" stroke="none" 
	d="
M299.901123,80.997589 
	C303.367615,80.997398 306.350647,80.997398 309.555756,80.997398 
	C297.661530,92.876427 286.617371,103.906441 275.523926,114.985695 
	C275.424438,114.401756 275.001404,113.041924 274.991699,111.679153 
	C274.929993,103.018021 275.117065,94.352058 274.887512,85.696571 
	C274.784332,81.807358 276.386169,80.853241 279.930603,80.962051 
	C286.420532,81.161270 292.921387,81.005508 299.901123,80.997589 
z"/>
<path fill="#7953A7" opacity="1.000000" stroke="none" 
	d="
M146.144058,209.940750 
	C152.591965,216.152939 158.985031,222.423645 165.517563,228.545532 
	C167.800858,230.685287 166.913467,232.082779 165.119171,233.840225 
	C158.711288,240.116638 152.392471,246.484009 145.325439,252.882568 
	C144.080811,252.040314 143.096909,251.136322 143.089142,250.224030 
	C142.985214,238.007904 142.928696,225.788971 143.152893,213.576111 
	C143.175461,212.346436 145.101440,211.151703 146.144058,209.940750 
z"/>
<path fill="#7B55A9" opacity="1.000000" stroke="none" 
	d="
M151.622437,198.004822 
	C151.468781,197.906509 151.315125,197.808182 150.959442,197.195129 
	C150.456680,196.473816 150.155945,196.267212 149.855194,196.060608 
	C149.855194,196.060608 149.949814,196.050964 149.851898,195.842163 
	C149.457870,195.441299 149.161774,195.249237 148.865662,195.057175 
	C148.865662,195.057175 148.955246,195.049896 148.963058,194.681030 
	C148.989258,193.227112 149.007645,192.142044 149.026031,191.056992 
	C153.168167,186.806427 157.310287,182.555847 162.065689,178.125885 
	C163.031281,177.509613 163.383606,177.072708 163.735931,176.635803 
	C163.735916,176.635803 163.791931,176.782990 164.029053,176.727386 
	C164.519363,176.134476 164.772537,175.597153 165.025696,175.059814 
	C165.845215,174.132294 166.664749,173.204773 168.182083,172.162476 
	C169.584824,173.112228 170.889206,174.169220 170.902649,175.242432 
	C171.049805,186.980347 171.097107,198.722916 170.851547,210.457520 
	C170.824478,211.750778 168.806763,213.002380 167.712311,214.273315 
	C167.712311,214.273315 167.766800,214.178650 167.737000,213.939789 
	C167.380173,213.528641 167.053131,213.356354 166.726074,213.184082 
	C166.726074,213.184082 166.848923,213.143768 166.778503,212.921982 
	C166.382263,212.526062 166.056427,212.351913 165.730606,212.177765 
	C165.730606,212.177765 165.853592,212.138336 165.781967,211.917877 
	C165.386292,211.520966 165.062241,211.344528 164.738190,211.168076 
	C164.738190,211.168076 164.862427,211.131989 164.787399,210.912872 
	C164.388138,210.518219 164.063904,210.342651 163.739670,210.167099 
	C163.739670,210.167099 163.860107,210.128616 163.790039,209.910889 
	C163.407639,209.501785 163.095337,209.310394 162.783020,209.119003 
	C162.783020,209.119003 162.901520,209.092743 162.815063,208.880936 
	C162.414444,208.485748 162.100281,208.302353 161.786118,208.118958 
	C161.786118,208.118958 161.903564,208.094467 161.816284,207.881683 
	C161.414703,207.485519 161.100403,207.302124 160.786102,207.118729 
	C160.786102,207.118729 160.902863,207.093613 160.817749,206.881470 
	C160.423096,206.480286 160.113571,206.291260 159.804031,206.102234 
	C159.804031,206.102234 159.916626,206.080826 159.826035,205.869934 
	C159.425400,205.473358 159.115372,205.287674 158.805328,205.101990 
	C158.805328,205.101990 158.917496,205.081177 158.826569,204.870041 
	C158.425659,204.473221 158.115646,204.287521 157.805649,204.101837 
	C157.805649,204.101837 157.917587,204.081039 157.826599,203.869919 
	C157.425690,203.473221 157.115738,203.287628 156.805801,203.102051 
	C156.805801,203.102051 156.917435,203.081177 156.826447,202.869995 
	C156.425583,202.473373 156.115677,202.287933 155.805786,202.102493 
	C155.805786,202.102493 155.920990,202.084488 155.828461,201.824799 
	C154.364777,200.378357 152.993607,199.191589 151.622437,198.004822 
z"/>
<path fill="#7B55A9" opacity="1.000000" stroke="none" 
	d="
M241.003967,106.994888 
	C246.806686,101.102760 252.609421,95.210640 259.122742,89.176056 
	C260.560211,89.914558 261.909027,90.787949 261.919891,91.677643 
	C262.063416,103.451401 262.079224,115.228241 261.922394,127.001610 
	C261.907684,128.107117 260.508026,129.194199 259.751404,130.289825 
	C259.751373,130.289810 259.738739,130.246567 259.712280,129.977692 
	C259.370575,129.547455 259.055328,129.386063 258.740082,129.224670 
	C258.740082,129.224670 258.907043,129.073364 258.796631,128.890900 
	C258.371033,128.546890 258.055878,128.385345 257.740692,128.223785 
	C257.740692,128.223785 257.906769,128.074036 257.796631,127.891045 
	C257.371368,127.546432 257.056274,127.384811 256.741150,127.223190 
	C256.741150,127.223198 256.906799,127.074493 256.796753,126.891174 
	C256.371796,126.546028 256.056885,126.384186 255.741943,126.222343 
	C255.741943,126.222343 255.907196,126.075035 255.796982,125.891266 
	C255.371689,125.546059 255.056595,125.384621 254.741516,125.223175 
	C254.741516,125.223175 254.907974,125.074371 254.797180,124.891144 
	C254.371201,124.546700 254.055984,124.385498 253.740784,124.224289 
	C253.740784,124.224289 253.908432,124.073242 253.797211,123.890808 
	C253.370712,123.547264 253.055420,123.386169 252.740143,123.225067 
	C252.740143,123.225067 252.908493,123.072311 252.797180,122.890457 
	C252.370605,122.547386 252.055359,122.386162 251.740112,122.224945 
	C251.740112,122.224945 251.907959,122.072220 251.796997,121.890373 
	C251.370941,121.547020 251.055847,121.385513 250.740738,121.224007 
	C250.740738,121.224007 250.907318,121.072151 250.797073,120.890091 
	C250.372360,120.545410 250.057907,120.382782 249.743439,120.220154 
	C249.743439,120.220154 249.906265,120.076691 249.796707,119.891571 
	C249.371735,119.545822 249.056305,119.385201 248.740891,119.224579 
	C248.740891,119.224579 248.909607,119.072281 248.797882,118.890320 
	C248.370956,118.547173 248.055740,118.385994 247.740540,118.224808 
	C247.740540,118.224808 247.908875,118.072014 247.797455,117.890259 
	C247.370880,117.547188 247.055756,117.385864 246.740616,117.224541 
	C246.740616,117.224541 246.908676,117.072571 246.797333,116.890533 
	C246.370926,116.547073 246.055862,116.385651 245.740784,116.224228 
	C245.740784,116.224228 245.908340,116.072937 245.797180,115.890640 
	C245.370895,115.547028 245.055771,115.385704 244.740631,115.224388 
	C244.740631,115.224388 244.908127,115.073105 244.797028,114.890778 
	C244.370728,114.547241 244.055496,114.386040 243.740280,114.224831 
	C243.740280,114.224831 243.908279,114.073013 243.797028,113.890839 
	C243.370468,113.547569 243.055176,113.386475 242.739868,113.225380 
	C242.739868,113.225380 242.908249,113.072746 242.796921,112.890846 
	C242.370255,112.547859 242.054901,112.386772 241.739563,112.225685 
	C241.739563,112.225685 241.908020,112.072327 241.796753,111.890732 
	C241.370255,111.547905 241.055008,111.386673 240.739777,111.225441 
	C240.739777,111.225441 240.864975,111.291122 240.873108,110.850723 
	C240.922165,109.271843 240.963058,108.133369 241.003967,106.994888 
z"/>
<path fill="#795C9B" opacity="1.000000" stroke="none" 
	d="
M188.952179,75.599792 
	C185.741714,75.520805 184.938568,77.169151 184.944489,80.316681 
	C185.026382,123.808517 185.005112,167.300568 184.984055,210.792557 
	C184.982941,213.108917 184.917679,215.304077 188.646866,215.026489 
	C187.716400,216.227646 186.357712,217.409744 183.991409,219.468521 
	C183.696350,216.360947 183.415192,214.775864 183.414337,213.190598 
	C183.390167,168.120041 183.379883,123.049461 183.450119,77.979012 
	C183.452713,76.315636 184.287018,74.653564 184.733719,72.990883 
	C186.087769,73.751404 187.441803,74.511925 188.952179,75.599792 
z"/>
<path fill="#B3C0C9" opacity="1.000000" stroke="none" 
	d="
M310.998749,137.000000 
	C310.998749,111.713264 310.998749,86.926521 310.998749,62.139786 
	C311.232971,62.139931 311.467194,62.140072 311.701416,62.140213 
	C311.701416,133.110016 311.701416,204.079819 311.701416,275.049622 
	C311.467194,275.050568 311.232971,275.051544 310.998749,275.052490 
	C310.998749,229.201660 310.998749,183.350830 310.998749,137.000000 
z"/>
<path fill="#D1DADF" opacity="1.000000" stroke="none" 
	d="
M109.000076,64.632698 
	C109.041298,63.568630 109.082451,62.922386 109.123604,62.276142 
	C109.303932,62.279243 109.484261,62.282341 109.664589,62.285439 
	C109.664589,132.445312 109.664589,202.605194 109.664589,272.765076 
	C109.443062,272.765961 109.221527,272.766846 109.000000,272.767700 
	C109.000000,203.528656 109.000000,134.289581 109.000076,64.632698 
z"/>
<path fill="#8A70A6" opacity="1.000000" stroke="none" 
	d="
M259.906372,130.621887 
	C260.508026,129.194199 261.907684,128.107117 261.922394,127.001610 
	C262.079224,115.228241 262.063416,103.451401 261.919891,91.677643 
	C261.909027,90.787949 260.560211,89.914558 259.415161,89.019539 
	C260.192383,88.358353 261.387787,87.711220 262.583191,87.064095 
	C263.016388,88.204170 263.818146,89.341629 263.826294,90.484726 
	C263.915863,103.085403 263.908203,115.687065 263.859406,128.288193 
	C263.849792,130.766342 263.753387,133.531677 259.906372,130.621887 
z"/>
<path fill="#7A6098" opacity="1.000000" stroke="none" 
	d="
M167.834686,214.594543 
	C168.806763,213.002380 170.824478,211.750778 170.851547,210.457520 
	C171.097107,198.722916 171.049805,186.980347 170.902649,175.242432 
	C170.889206,174.169220 169.584824,173.112228 168.468201,172.037003 
	C169.084930,171.268341 170.113358,170.510376 172.089020,169.054291 
	C172.089020,184.970840 172.226715,199.550201 172.001755,214.123978 
	C171.937592,218.280701 169.723526,216.686554 167.834686,214.594543 
z"/>
<path fill="#745C8E" opacity="1.000000" stroke="none" 
	d="
M145.961456,209.600708 
	C145.101440,211.151703 143.175461,212.346436 143.152893,213.576111 
	C142.928696,225.788971 142.985214,238.007904 143.089142,250.224030 
	C143.096909,251.136322 144.080811,252.040314 145.047791,253.037292 
	C143.537994,254.631424 142.000977,254.764816 141.990570,251.741501 
	C141.940918,237.315125 141.968307,222.888489 141.968307,207.525345 
	C143.666809,208.298843 144.722839,208.779755 145.961456,209.600708 
z"/>
<path fill="#795C9B" opacity="1.000000" stroke="none" 
	d="
M220.346634,183.945740 
	C219.885666,181.054291 221.182846,179.263214 224.695526,179.033813 
	C223.599777,180.635956 222.123245,182.225494 220.346634,183.945740 
z"/>
<path fill="#7A6098" opacity="1.000000" stroke="none" 
	d="
M151.744049,198.268555 
	C152.993607,199.191589 154.364777,200.378357 155.819412,201.882385 
	C154.557144,200.977203 153.211395,199.754761 151.744049,198.268555 
z"/>
<path fill="#795C9B" opacity="1.000000" stroke="none" 
	d="
M256.350708,147.917114 
	C256.025787,146.624512 256.019409,145.194534 256.040222,143.333786 
	C258.507416,144.252213 258.850952,145.860138 256.350708,147.917114 
z"/>
<path fill="#8A70A6" opacity="1.000000" stroke="none" 
	d="
M240.702515,107.131470 
	C240.963058,108.133369 240.922165,109.271843 240.804138,110.834412 
	C240.618378,109.928352 240.509720,108.598206 240.702515,107.131470 
z"/>
<path fill="#795C9B" opacity="1.000000" stroke="none" 
	d="
M203.335541,200.956757 
	C203.803040,200.061584 204.558762,199.044907 205.696274,198.037567 
	C205.259979,198.976334 204.441879,199.905777 203.335541,200.956757 
z"/>
<path fill="#795C9B" opacity="1.000000" stroke="none" 
	d="
M250.331482,153.953018 
	C250.794266,153.055069 251.547012,152.038925 252.679993,151.028076 
	C252.247284,151.967194 251.434372,152.901016 250.331482,153.953018 
z"/>
<path fill="#7A6098" opacity="1.000000" stroke="none" 
	d="
M148.744995,191.180054 
	C149.007645,192.142044 148.989258,193.227112 148.939987,194.719589 
	C148.760712,193.852371 148.612335,192.577744 148.744995,191.180054 
z"/>
<path fill="#7A6098" opacity="1.000000" stroke="none" 
	d="
M163.453079,176.692734 
	C163.383606,177.072708 163.031281,177.509613 162.369034,177.985977 
	C162.429489,177.600189 162.799866,177.174927 163.453079,176.692734 
z"/>
<path fill="#7A6098" opacity="1.000000" stroke="none" 
	d="
M164.758240,175.174347 
	C164.772537,175.597153 164.519363,176.134476 163.952576,176.708633 
	C163.922913,176.259949 164.206848,175.774414 164.758240,175.174347 
z"/>
<path fill="#795C9B" opacity="1.000000" stroke="none" 
	d="
M229.281403,174.996826 
	C229.221054,174.801636 229.410522,174.515717 229.842834,174.129517 
	C229.900848,174.321518 229.716019,174.613815 229.281403,174.996826 
z"/>
<path fill="#795C9B" opacity="1.000000" stroke="none" 
	d="
M225.279099,178.992706 
	C225.218124,178.797516 225.407013,178.512833 225.837082,178.126953 
	C225.895157,178.318237 225.712067,178.610718 225.279099,178.992706 
z"/>
<path fill="#795C9B" opacity="1.000000" stroke="none" 
	d="
M233.279877,170.994293 
	C233.220245,170.799454 233.410370,170.514496 233.842926,170.129242 
	C233.900116,170.320709 233.714874,170.612457 233.279877,170.994293 
z"/>
<path fill="#795C9B" opacity="1.000000" stroke="none" 
	d="
M232.280151,171.994720 
	C232.220322,171.799866 232.410172,171.514679 232.842484,171.129181 
	C232.899887,171.320694 232.714844,171.612534 232.280151,171.994720 
z"/>
<path fill="#795C9B" opacity="1.000000" stroke="none" 
	d="
M256.033356,142.694885 
	C255.828827,142.760391 255.534241,142.570114 255.143616,142.127945 
	C255.346161,142.063736 255.644730,142.251404 256.033356,142.694885 
z"/>
<path fill="#795C9B" opacity="1.000000" stroke="none" 
	d="
M231.281021,172.995972 
	C231.220566,172.800217 231.410339,172.514801 231.842804,172.129303 
	C231.900742,172.321564 231.716003,172.613937 231.281021,172.995972 
z"/>
<path fill="#795C9B" opacity="1.000000" stroke="none" 
	d="
M230.280884,173.995728 
	C230.220535,173.799850 230.410522,173.514557 230.843307,173.129395 
	C230.901138,173.321793 230.716171,173.614044 230.280884,173.995728 
z"/>
<path fill="#795C9B" opacity="1.000000" stroke="none" 
	d="
M228.280121,175.994446 
	C228.218887,175.795364 228.410477,175.511658 228.844910,175.129196 
	C228.902802,175.323578 228.717865,175.616714 228.280121,175.994446 
z"/>
<path fill="#795C9B" opacity="1.000000" stroke="none" 
	d="
M219.278503,184.992004 
	C219.218857,184.797119 219.408920,184.512772 219.840958,184.128235 
	C219.898010,184.319534 219.713120,184.611038 219.278503,184.992004 
z"/>
<path fill="#795C9B" opacity="1.000000" stroke="none" 
	d="
M227.275909,176.987717 
	C227.216141,176.791885 227.406952,176.509232 227.838898,176.126526 
	C227.895508,176.317932 227.710999,176.609406 227.275909,176.987717 
z"/>
<path fill="#795C9B" opacity="1.000000" stroke="none" 
	d="
M218.278198,185.991425 
	C218.218521,185.796600 218.408493,185.512421 218.840225,185.127914 
	C218.897278,185.319092 218.712570,185.610565 218.278198,185.991425 
z"/>
<path fill="#795C9B" opacity="1.000000" stroke="none" 
	d="
M226.277191,177.989685 
	C226.216080,177.794235 226.405197,177.510681 226.834686,177.125702 
	C226.892487,177.316711 226.709946,177.609146 226.277191,177.989685 
z"/>
<path fill="#795C9B" opacity="1.000000" stroke="none" 
	d="
M244.280243,159.995270 
	C244.220551,159.800369 244.410706,159.515106 244.843460,159.129440 
	C244.900726,159.320999 244.715393,159.612946 244.280243,159.995270 
z"/>
<path fill="#795C9B" opacity="1.000000" stroke="none" 
	d="
M189.278046,214.991364 
	C189.218689,214.796906 189.408798,214.512634 189.840775,214.128082 
	C189.897598,214.319046 189.712555,214.610306 189.278046,214.991364 
z"/>
<path fill="#795C9B" opacity="1.000000" stroke="none" 
	d="
M255.268463,148.975830 
	C255.210510,148.783417 255.400574,148.503387 255.828918,148.122314 
	C255.883636,148.310257 255.700058,148.599228 255.268463,148.975830 
z"/>
<path fill="#795C9B" opacity="1.000000" stroke="none" 
	d="
M254.267517,149.974045 
	C254.209091,149.781281 254.399124,149.502060 254.826538,149.121216 
	C254.881287,149.308929 254.698639,149.598267 254.267517,149.974045 
z"/>
<path fill="#795C9B" opacity="1.000000" stroke="none" 
	d="
M253.268799,150.976730 
	C253.209793,150.785110 253.398346,150.504532 253.824005,150.121078 
	C253.879532,150.308060 253.697937,150.597916 253.268799,150.976730 
z"/>
<path fill="#795C9B" opacity="1.000000" stroke="none" 
	d="
M249.274170,154.984894 
	C249.214584,154.789337 249.405441,154.507446 249.836792,154.125366 
	C249.893051,154.316284 249.708832,154.607422 249.274170,154.984894 
z"/>
<path fill="#795C9B" opacity="1.000000" stroke="none" 
	d="
M248.275421,155.987854 
	C248.216568,155.797012 248.404526,155.512589 248.832275,155.125397 
	C248.888794,155.313156 248.705521,155.603714 248.275421,155.987854 
z"/>
<path fill="#795C9B" opacity="1.000000" stroke="none" 
	d="
M247.281342,156.996735 
	C247.220093,156.801468 247.408920,156.515717 247.839539,156.128479 
	C247.898026,156.320068 247.714706,156.613159 247.281342,156.996735 
z"/>
<path fill="#795C9B" opacity="1.000000" stroke="none" 
	d="
M246.280762,157.996124 
	C246.221069,157.800919 246.411453,157.515488 246.844818,157.129974 
	C246.902130,157.321899 246.716476,157.613907 246.280762,157.996124 
z"/>
<path fill="#795C9B" opacity="1.000000" stroke="none" 
	d="
M245.280212,158.995346 
	C245.220642,158.800354 245.410980,158.515091 245.844101,158.129639 
	C245.901306,158.321304 245.715714,158.613190 245.280212,158.995346 
z"/>
<path fill="#795C9B" opacity="1.000000" stroke="none" 
	d="
M234.279999,169.994568 
	C234.220367,169.799759 234.410507,169.514740 234.843109,169.129379 
	C234.900299,169.320831 234.715027,169.612595 234.279999,169.994568 
z"/>
<path fill="#795C9B" opacity="1.000000" stroke="none" 
	d="
M243.280609,160.995850 
	C243.220734,160.800781 243.410782,160.515366 243.843460,160.129532 
	C243.900909,160.321228 243.715729,160.613358 243.280609,160.995850 
z"/>
<path fill="#795C9B" opacity="1.000000" stroke="none" 
	d="
M242.281158,161.996643 
	C242.221115,161.801392 242.411148,161.515808 242.843948,161.129807 
	C242.901550,161.321701 242.716385,161.614014 242.281158,161.996643 
z"/>
<path fill="#795C9B" opacity="1.000000" stroke="none" 
	d="
M241.281448,162.997040 
	C241.221359,162.801575 241.411484,162.515961 241.844513,162.130051 
	C241.902176,162.322144 241.716919,162.614517 241.281448,162.997040 
z"/>
<path fill="#795C9B" opacity="1.000000" stroke="none" 
	d="
M240.281326,163.996796 
	C240.221390,163.801422 240.411621,163.515884 240.844757,163.130127 
	C240.902298,163.322159 240.716888,163.614395 240.281326,163.996796 
z"/>
<path fill="#795C9B" opacity="1.000000" stroke="none" 
	d="
M239.281021,164.996368 
	C239.221176,164.801117 239.411438,164.515686 239.844604,164.130051 
	C239.902023,164.321976 239.716568,164.614075 239.281021,164.996368 
z"/>
<path fill="#795C9B" opacity="1.000000" stroke="none" 
	d="
M238.280594,165.995682 
	C238.220917,165.800613 238.411224,165.515335 238.844299,165.129868 
	C238.901566,165.321609 238.716064,165.613541 238.280594,165.995682 
z"/>
<path fill="#795C9B" opacity="1.000000" stroke="none" 
	d="
M237.280151,166.994980 
	C237.220703,166.800262 237.410950,166.515121 237.843826,166.129700 
	C237.900909,166.321136 237.715393,166.612839 237.280151,166.994980 
z"/>
<path fill="#795C9B" opacity="1.000000" stroke="none" 
	d="
M236.279999,167.994736 
	C236.220520,167.800110 236.410675,167.514984 236.843338,167.129517 
	C236.900452,167.320847 236.715042,167.612549 236.279999,167.994736 
z"/>
<path fill="#795C9B" opacity="1.000000" stroke="none" 
	d="
M235.279999,168.994690 
	C235.220459,168.799973 235.410599,168.514893 235.843201,168.129456 
	C235.900345,168.320847 235.715012,168.612579 235.279999,168.994690 
z"/>
<path fill="#7A6098" opacity="1.000000" stroke="none" 
	d="
M162.862671,209.387421 
	C163.095337,209.310394 163.407639,209.501785 163.779877,209.973297 
	C163.540634,210.054214 163.241486,209.855026 162.862671,209.387421 
z"/>
<path fill="#795C9B" opacity="1.000000" stroke="none" 
	d="
M199.278717,204.992203 
	C199.219498,204.798096 199.409485,204.513672 199.841354,204.128845 
	C199.898117,204.319580 199.713013,204.610733 199.278717,204.992203 
z"/>
<path fill="#7A6098" opacity="1.000000" stroke="none" 
	d="
M158.894531,205.364349 
	C159.115372,205.287674 159.425400,205.473358 159.818604,205.926758 
	C159.595749,206.005219 159.289749,205.815948 158.894531,205.364349 
z"/>
<path fill="#795C9B" opacity="1.000000" stroke="none" 
	d="
M198.278641,205.992188 
	C198.219330,205.797943 198.409286,205.513504 198.841125,205.128662 
	C198.897980,205.319519 198.712936,205.610764 198.278641,205.992188 
z"/>
<path fill="#7A6098" opacity="1.000000" stroke="none" 
	d="
M159.890686,206.366333 
	C160.113571,206.291260 160.423096,206.480286 160.809250,206.940567 
	C160.583023,207.018021 160.280197,206.824219 159.890686,206.366333 
z"/>
<path fill="#795C9B" opacity="1.000000" stroke="none" 
	d="
M197.278656,206.992279 
	C197.219254,206.797882 197.409195,206.513428 197.841003,206.128571 
	C197.897919,206.319504 197.712952,206.610855 197.278656,206.992279 
z"/>
<path fill="#7A6098" opacity="1.000000" stroke="none" 
	d="
M160.873032,207.383606 
	C161.100403,207.302124 161.414703,207.485519 161.807434,207.941025 
	C161.577240,208.024918 161.268600,207.836700 160.873032,207.383606 
z"/>
<path fill="#795C9B" opacity="1.000000" stroke="none" 
	d="
M196.278992,207.992859 
	C196.219391,207.798355 196.409210,207.513733 196.840942,207.128601 
	C196.898026,207.319641 196.713196,207.611191 196.278992,207.992859 
z"/>
<path fill="#7A6098" opacity="1.000000" stroke="none" 
	d="
M161.873047,208.383759 
	C162.100281,208.302353 162.414444,208.485748 162.807159,208.941101 
	C162.577103,209.024918 162.268539,208.836746 161.873047,208.383759 
z"/>
<path fill="#795C9B" opacity="1.000000" stroke="none" 
	d="
M195.279404,208.993637 
	C195.219711,208.799011 195.409546,208.514191 195.841461,208.128845 
	C195.898666,208.320038 195.713806,208.611740 195.279404,208.993637 
z"/>
<path fill="#7A6098" opacity="1.000000" stroke="none" 
	d="
M157.894836,204.364197 
	C158.115646,204.287521 158.425659,204.473221 158.818893,204.926575 
	C158.596085,205.005005 158.290039,204.815781 157.894836,204.364197 
z"/>
<path fill="#795C9B" opacity="1.000000" stroke="none" 
	d="
M194.279755,209.994217 
	C194.220016,209.799484 194.409927,209.514526 194.842056,209.129089 
	C194.899323,209.320419 194.714371,209.612213 194.279755,209.994217 
z"/>
<path fill="#7A6098" opacity="1.000000" stroke="none" 
	d="
M163.819885,210.436615 
	C164.063904,210.342651 164.388138,210.518219 164.775757,210.976517 
	C164.526138,211.074875 164.213104,210.890503 163.819885,210.436615 
z"/>
<path fill="#795C9B" opacity="1.000000" stroke="none" 
	d="
M193.279755,210.994232 
	C193.220108,210.799469 193.410217,210.514542 193.842636,210.129196 
	C193.899796,210.320541 193.714661,210.612289 193.279755,210.994232 
z"/>
<path fill="#7A6098" opacity="1.000000" stroke="none" 
	d="
M164.817200,211.437790 
	C165.062241,211.344528 165.386292,211.520966 165.770386,211.981415 
	C165.519028,212.079437 165.207611,211.893463 164.817200,211.437790 
z"/>
<path fill="#795C9B" opacity="1.000000" stroke="none" 
	d="
M192.279465,211.993835 
	C192.219925,211.799133 192.410110,211.514297 192.842606,211.129105 
	C192.899673,211.320404 192.714432,211.612061 192.279465,211.993835 
z"/>
<path fill="#7A6098" opacity="1.000000" stroke="none" 
	d="
M165.809082,212.447678 
	C166.056427,212.351913 166.382263,212.526062 166.766251,212.985458 
	C166.512115,213.086334 166.199829,212.901962 165.809082,212.447678 
z"/>
<path fill="#795C9B" opacity="1.000000" stroke="none" 
	d="
M191.279022,212.993073 
	C191.219574,212.798431 191.409790,212.513779 191.842224,212.128845 
	C191.899185,212.320053 191.713943,212.611557 191.279022,212.993073 
z"/>
<path fill="#7A6098" opacity="1.000000" stroke="none" 
	d="
M166.804382,213.454010 
	C167.053131,213.356354 167.380173,213.528641 167.764923,213.986725 
	C167.509323,214.089676 167.196014,213.906799 166.804382,213.454010 
z"/>
<path fill="#795C9B" opacity="1.000000" stroke="none" 
	d="
M190.278549,213.992218 
	C190.219162,213.797653 190.409332,213.513214 190.841553,213.128494 
	C190.898438,213.319595 190.713272,213.610962 190.278549,213.992218 
z"/>
<path fill="#795C9B" opacity="1.000000" stroke="none" 
	d="
M208.279877,195.994522 
	C208.220276,195.799667 208.410446,195.514603 208.843185,195.129318 
	C208.900375,195.320831 208.715012,195.612579 208.279877,195.994522 
z"/>
<path fill="#795C9B" opacity="1.000000" stroke="none" 
	d="
M216.278320,187.991592 
	C216.218643,187.797134 216.408371,187.512863 216.839615,187.127960 
	C216.896667,187.318802 216.712189,187.610275 216.278320,187.991592 
z"/>
<path fill="#795C9B" opacity="1.000000" stroke="none" 
	d="
M215.278793,188.992432 
	C215.219055,188.797928 215.408768,188.513412 215.840179,188.128296 
	C215.897324,188.319260 215.712784,188.610855 215.278793,188.992432 
z"/>
<path fill="#795C9B" opacity="1.000000" stroke="none" 
	d="
M214.279221,189.993301 
	C214.219437,189.798645 214.409210,189.513901 214.840942,189.128632 
	C214.898193,189.319809 214.713486,189.611511 214.279221,189.993301 
z"/>
<path fill="#795C9B" opacity="1.000000" stroke="none" 
	d="
M213.279510,190.993927 
	C213.219788,190.799194 213.409653,190.514267 213.841705,190.128845 
	C213.898972,190.320145 213.714050,190.611923 213.279510,190.993927 
z"/>
<path fill="#795C9B" opacity="1.000000" stroke="none" 
	d="
M212.279846,191.994598 
	C212.220123,191.799850 212.410034,191.514709 212.842316,191.129089 
	C212.899612,191.320465 212.714554,191.612335 212.279846,191.994598 
z"/>
<path fill="#795C9B" opacity="1.000000" stroke="none" 
	d="
M211.280182,192.995087 
	C211.220459,192.800278 211.410461,192.515030 211.842972,192.129349 
	C211.900284,192.320831 211.715088,192.612732 211.280182,192.995087 
z"/>
<path fill="#795C9B" opacity="1.000000" stroke="none" 
	d="
M210.280304,193.995255 
	C210.220596,193.800369 210.410690,193.515106 210.843384,193.129517 
	C210.900696,193.321091 210.715408,193.612991 210.280304,193.995255 
z"/>
<path fill="#795C9B" opacity="1.000000" stroke="none" 
	d="
M209.280182,194.994995 
	C209.220505,194.800064 209.410675,194.514893 209.843445,194.129517 
	C209.900711,194.321121 209.715363,194.612946 209.280182,194.994995 
z"/>
<path fill="#7A6098" opacity="1.000000" stroke="none" 
	d="
M148.957474,195.312057 
	C149.161774,195.249237 149.457870,195.441299 149.845566,195.889282 
	C149.641190,195.952469 149.345245,195.759705 148.957474,195.312057 
z"/>
<path fill="#795C9B" opacity="1.000000" stroke="none" 
	d="
M217.278076,186.991165 
	C217.218384,186.796539 217.408234,186.512405 217.839676,186.127808 
	C217.896713,186.318787 217.712158,186.610214 217.278076,186.991165 
z"/>
<path fill="#7A6098" opacity="1.000000" stroke="none" 
	d="
M149.945435,196.324066 
	C150.155945,196.267212 150.456680,196.473816 150.844666,196.946747 
	C150.633163,197.004578 150.334427,196.796051 149.945435,196.324066 
z"/>
<path fill="#795C9B" opacity="1.000000" stroke="none" 
	d="
M207.279510,196.994019 
	C207.220016,196.799301 207.410217,196.514343 207.842850,196.129120 
	C207.899918,196.320480 207.714554,196.612137 207.279510,196.994019 
z"/>
<path fill="#795C9B" opacity="1.000000" stroke="none" 
	d="
M206.279205,197.993515 
	C206.219818,197.798965 206.410004,197.514130 206.842484,197.128937 
	C206.899445,197.320129 206.714111,197.611679 206.279205,197.993515 
z"/>
<path fill="#795C9B" opacity="1.000000" stroke="none" 
	d="
M202.279480,201.993469 
	C202.220108,201.799088 202.410156,201.514328 202.842377,201.129150 
	C202.899338,201.320190 202.714127,201.611633 202.279480,201.993469 
z"/>
<path fill="#7A6098" opacity="1.000000" stroke="none" 
	d="
M155.895172,202.364563 
	C156.115677,202.287933 156.425583,202.473373 156.818817,202.926270 
	C156.596283,203.004684 156.290421,202.815659 155.895172,202.364563 
z"/>
<path fill="#795C9B" opacity="1.000000" stroke="none" 
	d="
M201.279175,202.992874 
	C201.219925,202.798569 201.410049,202.514008 201.842255,202.129120 
	C201.899094,202.320084 201.713821,202.611343 201.279175,202.992874 
z"/>
<path fill="#7A6098" opacity="1.000000" stroke="none" 
	d="
M156.895081,203.364288 
	C157.115738,203.287628 157.425690,203.473221 157.818970,203.926331 
	C157.596329,204.004745 157.290329,203.815643 156.895081,203.364288 
z"/>
<path fill="#795C9B" opacity="1.000000" stroke="none" 
	d="
M200.278839,203.992340 
	C200.219681,203.798233 200.409729,203.513779 200.841766,203.128937 
	C200.898499,203.319702 200.713272,203.610840 200.278839,203.992340 
z"/>
<path fill="#795C9B" opacity="1.000000" stroke="none" 
	d="
M223.027466,109.698975 
	C222.825577,109.765671 222.532013,109.579109 222.136932,109.145798 
	C222.335526,109.081276 222.635666,109.263504 223.027466,109.698975 
z"/>
<path fill="#795C9B" opacity="1.000000" stroke="none" 
	d="
M213.030304,99.697083 
	C212.826859,99.762672 212.532928,99.573250 212.141174,99.133682 
	C212.342178,99.069710 212.641006,99.255898 213.030304,99.697083 
z"/>
<path fill="#795C9B" opacity="1.000000" stroke="none" 
	d="
M214.012207,100.708290 
	C213.812225,100.768349 213.523621,100.573837 213.140625,100.129288 
	C213.338669,100.070740 213.631134,100.262230 214.012207,100.708290 
z"/>
<path fill="#795C9B" opacity="1.000000" stroke="none" 
	d="
M215.028046,101.698715 
	C214.826004,101.765526 214.532272,101.579041 214.137054,101.145691 
	C214.335831,101.081032 214.636093,101.263229 215.028046,101.698715 
z"/>
<path fill="#795C9B" opacity="1.000000" stroke="none" 
	d="
M216.028915,102.697754 
	C215.825745,102.762299 215.532410,102.571770 215.142395,102.130478 
	C215.343399,102.067368 215.641068,102.255020 216.028915,102.697754 
z"/>
<path fill="#795C9B" opacity="1.000000" stroke="none" 
	d="
M217.027649,103.698662 
	C216.824783,103.762955 216.531799,103.572296 216.142014,103.131165 
	C216.342651,103.068367 216.640091,103.256035 217.027649,103.698662 
z"/>
<path fill="#795C9B" opacity="1.000000" stroke="none" 
	d="
M218.031525,104.696350 
	C217.827560,104.762039 217.533508,104.572418 217.141953,104.132324 
	C217.343430,104.068245 217.642441,104.254639 218.031525,104.696350 
z"/>
<path fill="#795C9B" opacity="1.000000" stroke="none" 
	d="
M219.026550,105.699364 
	C218.823547,105.763222 218.530945,105.571678 218.142365,105.129143 
	C218.343246,105.066750 218.640091,105.255356 219.026550,105.699364 
z"/>
<path fill="#795C9B" opacity="1.000000" stroke="none" 
	d="
M220.026581,106.699524 
	C219.823898,106.764053 219.531036,106.573761 219.140808,106.133545 
	C219.341110,106.070641 219.638763,106.257668 220.026581,106.699524 
z"/>
<path fill="#795C9B" opacity="1.000000" stroke="none" 
	d="
M221.028015,107.698540 
	C220.825043,107.763412 220.531784,107.573341 220.141113,107.133125 
	C220.341705,107.069855 220.639709,107.256729 221.028015,107.698540 
z"/>
<path fill="#795C9B" opacity="1.000000" stroke="none" 
	d="
M222.011841,108.708626 
	C221.812012,108.768890 221.523468,108.574814 221.139908,108.131233 
	C221.337631,108.072578 221.630402,108.263428 222.011841,108.708626 
z"/>
<path fill="#795C9B" opacity="1.000000" stroke="none" 
	d="
M212.025970,98.699966 
	C211.823441,98.764435 211.530716,98.574211 211.140472,98.134247 
	C211.340561,98.071434 211.638153,98.258362 212.025970,98.699966 
z"/>
<path fill="#795C9B" opacity="1.000000" stroke="none" 
	d="
M224.028336,110.697937 
	C223.825500,110.762337 223.532349,110.571877 223.142303,110.130905 
	C223.342957,110.067947 223.640472,110.255508 224.028336,110.697937 
z"/>
<path fill="#795C9B" opacity="1.000000" stroke="none" 
	d="
M225.026001,111.699577 
	C224.823792,111.763321 224.531296,111.572426 224.142044,111.131317 
	C224.342102,111.069038 224.638916,111.256996 225.026001,111.699577 
z"/>
<path fill="#8A70A6" opacity="1.000000" stroke="none" 
	d="
M240.826996,111.472549 
	C241.055008,111.386673 241.370255,111.547905 241.733185,111.985260 
	C241.492004,112.080803 241.203110,111.900230 240.826996,111.472549 
z"/>
<path fill="#795C9B" opacity="1.000000" stroke="none" 
	d="
M226.029678,112.697205 
	C225.826736,112.762337 225.533157,112.572800 225.141693,112.133339 
	C225.342224,112.069786 225.640625,112.256165 226.029678,112.697205 
z"/>
<path fill="#8A70A6" opacity="1.000000" stroke="none" 
	d="
M241.826874,112.472763 
	C242.054901,112.386772 242.370255,112.547859 242.733398,112.985069 
	C242.492203,113.080742 242.203201,112.900291 241.826874,112.472763 
z"/>
<path fill="#795C9B" opacity="1.000000" stroke="none" 
	d="
M227.027802,113.698425 
	C226.825027,113.762505 226.532120,113.571602 226.142670,113.130043 
	C226.343307,113.067406 226.640472,113.255424 227.027802,113.698425 
z"/>
<path fill="#8A70A6" opacity="1.000000" stroke="none" 
	d="
M242.827225,113.472443 
	C243.055176,113.386475 243.370468,113.547569 243.733734,113.984718 
	C243.492676,114.080345 243.203629,113.899925 242.827225,113.472443 
z"/>
<path fill="#795C9B" opacity="1.000000" stroke="none" 
	d="
M228.027222,114.698868 
	C227.824707,114.763092 227.531830,114.572617 227.141830,114.131966 
	C227.342087,114.069252 227.639465,114.256706 228.027222,114.698868 
z"/>
<path fill="#8A70A6" opacity="1.000000" stroke="none" 
	d="
M243.827682,114.471893 
	C244.055496,114.386040 244.370728,114.547241 244.734055,114.984421 
	C244.493134,115.079910 244.204117,114.899429 243.827682,114.471893 
z"/>
<path fill="#795C9B" opacity="1.000000" stroke="none" 
	d="
M200.028397,86.698112 
	C199.825165,86.762718 199.531982,86.572174 199.142029,86.131020 
	C199.342987,86.067924 199.640701,86.255440 200.028397,86.698112 
z"/>
<path fill="#795C9B" opacity="1.000000" stroke="none" 
	d="
M190.013092,76.707870 
	C189.813202,76.768822 189.524338,76.575645 189.139587,76.133545 
	C189.337173,76.074318 189.630646,76.264030 190.013092,76.707870 
z"/>
<path fill="#795C9B" opacity="1.000000" stroke="none" 
	d="
M191.025299,77.700394 
	C190.823669,77.766212 190.530884,77.578735 190.137207,77.144379 
	C190.335587,77.080696 190.634872,77.263901 191.025299,77.700394 
z"/>
<path fill="#795C9B" opacity="1.000000" stroke="none" 
	d="
M192.024200,78.700745 
	C191.822342,78.764252 191.530334,78.573380 191.141235,78.132790 
	C191.340775,78.070831 191.637421,78.258598 192.024200,78.700745 
z"/>
<path fill="#795C9B" opacity="1.000000" stroke="none" 
	d="
M193.023270,79.701447 
	C192.821747,79.764992 192.529892,79.574409 192.140579,79.134575 
	C192.339722,79.072655 192.636337,79.259987 193.023270,79.701447 
z"/>
<path fill="#795C9B" opacity="1.000000" stroke="none" 
	d="
M194.027679,80.698730 
	C193.825058,80.763733 193.531952,80.574249 193.140701,80.135376 
	C193.340775,80.072075 193.638992,80.258163 194.027679,80.698730 
z"/>
<path fill="#795C9B" opacity="1.000000" stroke="none" 
	d="
M195.022385,81.702057 
	C194.820541,81.765121 194.529037,81.573410 194.141205,81.131653 
	C194.340820,81.070152 194.636765,81.258720 195.022385,81.702057 
z"/>
<path fill="#795C9B" opacity="1.000000" stroke="none" 
	d="
M196.025299,82.700470 
	C195.822586,82.765335 195.530167,82.575500 195.139618,82.136665 
	C195.339508,82.073692 195.637573,82.259735 196.025299,82.700470 
z"/>
<path fill="#795C9B" opacity="1.000000" stroke="none" 
	d="
M197.025681,83.700195 
	C196.823761,83.764328 196.530960,83.574181 196.140503,83.134338 
	C196.340164,83.071739 196.637482,83.258835 197.025681,83.700195 
z"/>
<path fill="#795C9B" opacity="1.000000" stroke="none" 
	d="
M198.013000,84.707870 
	C197.812744,84.768921 197.523804,84.575470 197.139389,84.132706 
	C197.337387,84.073380 197.630844,84.263382 198.013000,84.707870 
z"/>
<path fill="#795C9B" opacity="1.000000" stroke="none" 
	d="
M199.027771,85.698959 
	C198.825531,85.765686 198.531891,85.578911 198.137085,85.145035 
	C198.336060,85.080444 198.636200,85.262947 199.027771,85.698959 
z"/>
<path fill="#795C9B" opacity="1.000000" stroke="none" 
	d="
M229.028168,115.698303 
	C228.825836,115.762741 228.532516,115.572639 228.141846,115.132324 
	C228.342072,115.069328 228.639633,115.256554 229.028168,115.698303 
z"/>
<path fill="#795C9B" opacity="1.000000" stroke="none" 
	d="
M201.024689,87.700653 
	C200.821838,87.764519 200.529846,87.573143 200.141357,87.131599 
	C200.341751,87.069412 200.638672,87.257408 201.024689,87.700653 
z"/>
<path fill="#795C9B" opacity="1.000000" stroke="none" 
	d="
M202.030731,88.697060 
	C201.826035,88.763542 201.532486,88.574242 201.140625,88.135376 
	C201.342163,88.070961 201.642014,88.256111 202.030731,88.697060 
z"/>
<path fill="#795C9B" opacity="1.000000" stroke="none" 
	d="
M203.021774,89.702347 
	C202.817291,89.766281 202.526886,89.573364 202.140961,89.130310 
	C202.342224,89.068619 202.639038,89.257065 203.021774,89.702347 
z"/>
<path fill="#795C9B" opacity="1.000000" stroke="none" 
	d="
M204.023239,90.701675 
	C203.824265,90.765282 203.531235,90.576744 203.138641,90.139999 
	C203.335800,90.077698 203.632477,90.263618 204.023239,90.701675 
z"/>
<path fill="#795C9B" opacity="1.000000" stroke="none" 
	d="
M205.047928,91.682083 
	C204.841904,91.753746 204.542725,91.569206 204.143585,91.133575 
	C204.347336,91.063622 204.651062,91.244759 205.047928,91.682083 
z"/>
<path fill="#795C9B" opacity="1.000000" stroke="none" 
	d="
M206.064148,92.699142 
	C205.866241,92.761101 205.560989,92.569336 205.155548,92.118767 
	C205.355820,92.055107 205.656311,92.250259 206.064148,92.699142 
z"/>
<path fill="#795C9B" opacity="1.000000" stroke="none" 
	d="
M208.073914,94.688438 
	C207.871231,94.743614 207.560242,94.538727 207.152527,94.064392 
	C207.359070,94.006088 207.662323,94.217232 208.073914,94.688438 
z"/>
<path fill="#795C9B" opacity="1.000000" stroke="none" 
	d="
M210.020737,96.701897 
	C209.821609,96.761543 209.527328,96.567390 209.132568,96.122574 
	C209.329941,96.063972 209.627747,96.256035 210.020737,96.701897 
z"/>
<path fill="#795C9B" opacity="1.000000" stroke="none" 
	d="
M211.025711,97.699547 
	C210.822815,97.764534 210.530273,97.573952 210.140778,97.133369 
	C210.341248,97.070244 210.638657,97.257111 211.025711,97.699547 
z"/>
<path fill="#795C9B" opacity="1.000000" stroke="none" 
	d="
M245.029022,131.697891 
	C244.826401,131.762955 244.532669,131.573486 244.141083,131.133987 
	C244.341461,131.070419 244.639694,131.256882 245.029022,131.697891 
z"/>
<path fill="#8A70A6" opacity="1.000000" stroke="none" 
	d="
M254.829071,125.470306 
	C255.056595,125.384621 255.371689,125.546059 255.735443,125.983276 
	C255.494949,126.078514 255.205780,125.897972 254.829071,125.470306 
z"/>
<path fill="#795C9B" opacity="1.000000" stroke="none" 
	d="
M240.031662,126.695862 
	C239.827698,126.760956 239.533661,126.570557 239.143311,126.128731 
	C239.345200,126.064995 239.643387,126.252678 240.031662,126.695862 
z"/>
<path fill="#8A70A6" opacity="1.000000" stroke="none" 
	d="
M255.829254,126.469589 
	C256.056885,126.384186 256.371796,126.546028 256.734985,126.983765 
	C256.494354,127.078728 256.205444,126.897781 255.829254,126.469589 
z"/>
<path fill="#795C9B" opacity="1.000000" stroke="none" 
	d="
M241.022827,127.701851 
	C240.820679,127.764511 240.529175,127.572128 240.142212,127.128975 
	C240.342316,127.067734 240.637878,127.257278 241.022827,127.701851 
z"/>
<path fill="#8A70A6" opacity="1.000000" stroke="none" 
	d="
M256.828369,127.470490 
	C257.056274,127.384811 257.371368,127.546432 257.734619,127.984070 
	C257.493683,128.079315 257.204620,127.898552 256.828369,127.470490 
z"/>
<path fill="#795C9B" opacity="1.000000" stroke="none" 
	d="
M242.030945,128.696655 
	C241.827499,128.762878 241.533371,128.574478 241.140259,128.136780 
	C241.340942,128.072327 241.640610,128.257187 242.030945,128.696655 
z"/>
<path fill="#8A70A6" opacity="1.000000" stroke="none" 
	d="
M257.827759,128.471100 
	C258.055878,128.385345 258.371033,128.546890 258.734039,128.984589 
	C258.492859,129.079941 258.203857,128.899185 257.827759,128.471100 
z"/>
<path fill="#795C9B" opacity="1.000000" stroke="none" 
	d="
M243.026123,129.699646 
	C242.823273,129.763290 242.530807,129.571655 242.142487,129.129059 
	C242.343262,129.066849 242.639877,129.255615 243.026123,129.699646 
z"/>
<path fill="#8A70A6" opacity="1.000000" stroke="none" 
	d="
M258.827148,129.471924 
	C259.055328,129.386063 259.370575,129.547455 259.733490,129.985016 
	C259.492188,130.080521 259.203217,129.899857 258.827148,129.471924 
z"/>
<path fill="#795C9B" opacity="1.000000" stroke="none" 
	d="
M244.025513,130.700211 
	C243.823151,130.764404 243.530579,130.573990 243.140686,130.133804 
	C243.340668,130.071213 243.637985,130.258408 244.025513,130.700211 
z"/>
<path fill="#795C9B" opacity="1.000000" stroke="none" 
	d="
M239.030823,125.696686 
	C238.827850,125.763657 238.533493,125.576576 238.138672,125.141342 
	C238.338638,125.076332 238.639038,125.259491 239.030823,125.696686 
z"/>
<path fill="#795C9B" opacity="1.000000" stroke="none" 
	d="
M246.018188,132.704498 
	C245.816910,132.766434 245.526566,132.573425 245.141006,132.130112 
	C245.340240,132.069717 245.634659,132.259644 246.018188,132.704498 
z"/>
<path fill="#795C9B" opacity="1.000000" stroke="none" 
	d="
M247.031189,133.696381 
	C246.828140,133.763367 246.533646,133.576279 246.138931,133.140808 
	C246.339066,133.075729 246.639404,133.259033 247.031189,133.696381 
z"/>
<path fill="#795C9B" opacity="1.000000" stroke="none" 
	d="
M248.032104,134.695435 
	C247.828186,134.760559 247.534012,134.570221 247.143524,134.128387 
	C247.345428,134.064590 247.643646,134.252289 248.032104,134.695435 
z"/>
<path fill="#795C9B" opacity="1.000000" stroke="none" 
	d="
M249.024734,135.700455 
	C248.822342,135.763474 248.530319,135.571442 248.142731,135.128479 
	C248.343140,135.066833 248.639130,135.256119 249.024734,135.700455 
z"/>
<path fill="#795C9B" opacity="1.000000" stroke="none" 
	d="
M250.033569,136.694763 
	C249.829605,136.761383 249.534882,136.573120 249.141357,136.135071 
	C249.342636,136.070145 249.642715,136.255020 250.033569,136.694763 
z"/>
<path fill="#795C9B" opacity="1.000000" stroke="none" 
	d="
M251.026459,137.699265 
	C250.823624,137.762527 250.531174,137.570419 250.143494,137.126831 
	C250.344467,137.064896 250.640656,137.254395 251.026459,137.699265 
z"/>
<path fill="#795C9B" opacity="1.000000" stroke="none" 
	d="
M252.025925,138.699921 
	C251.823654,138.764084 251.531006,138.573715 251.140976,138.133545 
	C251.340897,138.070953 251.638229,138.258163 252.025925,138.699921 
z"/>
<path fill="#795C9B" opacity="1.000000" stroke="none" 
	d="
M253.029953,139.697357 
	C252.827225,139.762512 252.533279,139.573074 252.141449,139.133499 
	C252.341965,139.069824 252.640350,139.256302 253.029953,139.697357 
z"/>
<path fill="#795C9B" opacity="1.000000" stroke="none" 
	d="
M254.021332,140.702667 
	C253.819168,140.765381 253.527985,140.572754 253.141571,140.129379 
	C253.341675,140.068192 253.636993,140.257751 254.021332,140.702667 
z"/>
<path fill="#795C9B" opacity="1.000000" stroke="none" 
	d="
M234.030182,120.697250 
	C233.826630,120.763031 233.532852,120.573830 233.140930,120.134857 
	C233.341843,120.070816 233.640915,120.256554 234.030182,120.697250 
z"/>
<path fill="#8A70A6" opacity="1.000000" stroke="none" 
	d="
M244.828033,115.471428 
	C245.055771,115.385704 245.370895,115.547028 245.734161,115.984283 
	C245.493332,116.079628 245.204391,115.899048 244.828033,115.471428 
z"/>
<path fill="#795C9B" opacity="1.000000" stroke="none" 
	d="
M230.015503,116.706398 
	C229.814865,116.767525 229.525375,116.574020 229.140717,116.130646 
	C229.339233,116.071098 229.632935,116.261429 230.015503,116.706398 
z"/>
<path fill="#8A70A6" opacity="1.000000" stroke="none" 
	d="
M245.828140,116.471275 
	C246.055862,116.385651 246.370926,116.547073 246.733978,116.984444 
	C246.493134,117.079704 246.204315,116.899010 245.828140,116.471275 
z"/>
<path fill="#795C9B" opacity="1.000000" stroke="none" 
	d="
M231.027893,117.698700 
	C230.825394,117.765144 230.531906,117.577774 230.137878,117.142838 
	C230.337204,117.078484 230.637070,117.261688 231.027893,117.698700 
z"/>
<path fill="#8A70A6" opacity="1.000000" stroke="none" 
	d="
M246.827988,117.471542 
	C247.055756,117.385864 247.370880,117.547188 247.733887,117.984497 
	C247.492966,118.079842 247.204163,117.899193 246.827988,117.471542 
z"/>
<path fill="#795C9B" opacity="1.000000" stroke="none" 
	d="
M232.026779,118.699188 
	C231.824066,118.763184 231.531296,118.572380 231.141907,118.131088 
	C231.342438,118.068535 231.639587,118.256462 232.026779,118.699188 
z"/>
<path fill="#8A70A6" opacity="1.000000" stroke="none" 
	d="
M247.827942,118.471802 
	C248.055740,118.385994 248.370956,118.547173 248.734070,118.984352 
	C248.493103,119.079834 248.204208,118.899315 247.827942,118.471802 
z"/>
<path fill="#795C9B" opacity="1.000000" stroke="none" 
	d="
M233.024536,119.700737 
	C232.822372,119.764458 232.530167,119.573586 232.141083,119.132782 
	C232.340958,119.070618 232.637741,119.258377 233.024536,119.700737 
z"/>
<path fill="#8A70A6" opacity="1.000000" stroke="none" 
	d="
M248.828873,119.471512 
	C249.056305,119.385201 249.371735,119.545822 249.736710,119.981979 
	C249.496460,120.077820 249.206665,119.898140 248.828873,119.471512 
z"/>
<path fill="#795C9B" opacity="1.000000" stroke="none" 
	d="
M255.032532,141.695587 
	C254.828796,141.762680 254.534012,141.575150 254.139694,141.138489 
	C254.340591,141.073227 254.641037,141.257095 255.032532,141.695587 
z"/>
<path fill="#8A70A6" opacity="1.000000" stroke="none" 
	d="
M249.830368,120.467522 
	C250.057907,120.382782 250.372360,120.545410 250.734634,120.983925 
	C250.494049,121.078171 250.205673,120.896530 249.830368,120.467522 
z"/>
<path fill="#795C9B" opacity="1.000000" stroke="none" 
	d="
M235.028107,121.698227 
	C234.824799,121.762749 234.531723,121.571846 234.142197,121.130119 
	C234.343277,121.067139 234.640823,121.254982 235.028107,121.698227 
z"/>
<path fill="#8A70A6" opacity="1.000000" stroke="none" 
	d="
M250.827850,121.471191 
	C251.055847,121.385513 251.370941,121.547020 251.733795,121.984604 
	C251.492691,122.079910 251.203827,121.899147 250.827850,121.471191 
z"/>
<path fill="#795C9B" opacity="1.000000" stroke="none" 
	d="
M236.028198,122.698235 
	C235.825180,122.762993 235.531967,122.572746 235.141602,122.132187 
	C235.342300,122.069000 235.640167,122.256111 236.028198,122.698235 
z"/>
<path fill="#8A70A6" opacity="1.000000" stroke="none" 
	d="
M251.827332,122.472054 
	C252.055359,122.386162 252.370605,122.547386 252.733643,122.984711 
	C252.492477,123.080269 252.203522,122.899719 251.827332,122.472054 
z"/>
<path fill="#795C9B" opacity="1.000000" stroke="none" 
	d="
M237.029510,123.697380 
	C236.826477,123.762314 236.532852,123.572304 236.141998,123.131805 
	C236.342819,123.068367 236.640869,123.255402 237.029510,123.697380 
z"/>
<path fill="#8A70A6" opacity="1.000000" stroke="none" 
	d="
M252.827545,123.472137 
	C253.055420,123.386169 253.370712,123.547264 253.734131,123.984352 
	C253.493164,124.079964 253.204041,123.899590 252.827545,123.472137 
z"/>
<path fill="#795C9B" opacity="1.000000" stroke="none" 
	d="
M238.017395,124.705246 
	C237.816406,124.766747 237.526367,124.573471 237.141129,124.130020 
	C237.340073,124.070053 237.634216,124.260269 238.017395,124.705246 
z"/>
<path fill="#8A70A6" opacity="1.000000" stroke="none" 
	d="
M253.828308,124.471359 
	C254.055984,124.385498 254.371201,124.546700 254.734863,124.983765 
	C254.494171,125.079216 254.205002,124.898827 253.828308,124.471359 
z"/>
</svg>